<svg width="13" height="13" viewBox="0 0 13 13" xmlns="http://www.w3.org/2000/svg">
<path d="M4.75429 7.17203C4.75429 7.00932 4.61921 6.87723 4.45253 6.87723H3.39963C3.23323 6.87723 3.09814 7.00905 3.09814 7.17203V8.2016C3.09814 8.36458 3.23323 8.49667 3.39963 8.49667H4.4528C4.61948 8.49667 4.75457 8.36458 4.75457 8.2016L4.75429 7.17203Z" />
<path d="M4.75429 7.17203C4.75429 7.00932 4.61921 6.87723 4.45253 6.87723H3.39963C3.23323 6.87723 3.09814 7.00905 3.09814 7.17203V8.2016C3.09814 8.36458 3.23323 8.49667 3.39963 8.49667H4.4528C4.61948 8.49667 4.75457 8.36458 4.75457 8.2016L4.75429 7.17203Z" />
<path d="M7.38564 7.17203C7.38564 7.00932 7.25055 6.87723 7.08415 6.87723H6.03098C5.86458 6.87723 5.72949 7.00905 5.72949 7.17203V8.2016C5.72949 8.36458 5.86458 8.49667 6.03098 8.49667H7.08415C7.25055 8.49667 7.38564 8.36458 7.38564 8.2016V7.17203Z" />
<path d="M7.38564 7.17203C7.38564 7.00932 7.25055 6.87723 7.08415 6.87723H6.03098C5.86458 6.87723 5.72949 7.00905 5.72949 7.17203V8.2016C5.72949 8.36458 5.86458 8.49667 6.03098 8.49667H7.08415C7.25055 8.49667 7.38564 8.36458 7.38564 8.2016V7.17203Z" />
<path d="M10.0178 7.17203C10.0178 7.00932 9.88267 6.87723 9.71626 6.87723H8.66309C8.49641 6.87723 8.36133 7.00905 8.36133 7.17203V8.2016C8.36133 8.36458 8.49641 8.49667 8.66309 8.49667H9.71626C9.88267 8.49667 10.0178 8.36458 10.0178 8.2016V7.17203Z" />
<path d="M10.0178 7.17203C10.0178 7.00932 9.88267 6.87723 9.71626 6.87723H8.66309C8.49641 6.87723 8.36133 7.00905 8.36133 7.17203V8.2016C8.36133 8.36458 8.49641 8.49667 8.66309 8.49667H9.71626C9.88267 8.49667 10.0178 8.36458 10.0178 8.2016V7.17203Z" />
<path d="M4.75429 9.74567C4.75429 9.58268 4.61921 9.45059 4.45253 9.45059H3.39963C3.23323 9.45059 3.09814 9.58242 3.09814 9.74567V10.775C3.09814 10.9379 3.23323 11.0698 3.39963 11.0698H4.4528C4.61948 11.0698 4.75457 10.9377 4.75457 10.775L4.75429 9.74567Z" />
<path d="M4.75429 9.74567C4.75429 9.58268 4.61921 9.45059 4.45253 9.45059H3.39963C3.23323 9.45059 3.09814 9.58242 3.09814 9.74567V10.775C3.09814 10.9379 3.23323 11.0698 3.39963 11.0698H4.4528C4.61948 11.0698 4.75457 10.9377 4.75457 10.775L4.75429 9.74567Z" />
<path d="M7.38564 9.74567C7.38564 9.58268 7.25055 9.45059 7.08415 9.45059H6.03098C5.86458 9.45059 5.72949 9.58242 5.72949 9.74567V10.775C5.72949 10.9379 5.86458 11.0698 6.03098 11.0698H7.08415C7.25055 11.0698 7.38564 10.9377 7.38564 10.775V9.74567Z" />
<path d="M7.38564 9.74567C7.38564 9.58268 7.25055 9.45059 7.08415 9.45059H6.03098C5.86458 9.45059 5.72949 9.58242 5.72949 9.74567V10.775C5.72949 10.9379 5.86458 11.0698 6.03098 11.0698H7.08415C7.25055 11.0698 7.38564 10.9377 7.38564 10.775V9.74567Z" />
<path d="M10.0178 9.74567C10.0178 9.58268 9.88267 9.45059 9.71626 9.45059H8.66309C8.49641 9.45059 8.36133 9.58242 8.36133 9.74567V10.775C8.36133 10.9379 8.49641 11.0698 8.66309 11.0698H9.71626C9.88267 11.0698 10.0178 10.9377 10.0178 10.775V9.74567Z" />
<path d="M10.0178 9.74567C10.0178 9.58268 9.88267 9.45059 9.71626 9.45059H8.66309C8.49641 9.45059 8.36133 9.58242 8.36133 9.74567V10.775C8.36133 10.9379 8.49641 11.0698 8.66309 11.0698H9.71626C9.88267 11.0698 10.0178 10.9377 10.0178 10.775V9.74567Z" />
<path d="M11.9004 1.4474V3.01996C11.9004 3.73075 11.3108 4.30359 10.5839 4.30359H9.75349C9.02659 4.30359 8.42906 3.73075 8.42906 3.01996V1.4418H4.6859V3.01996C4.6859 3.73075 4.08837 4.30359 3.36175 4.30359H2.53108C1.80446 4.30359 1.21455 3.73075 1.21455 3.01996V1.4474C0.579709 1.4663 0.0576172 1.98028 0.0576172 2.61198V11.828C0.0576172 12.4716 0.591147 13.0003 1.24941 13.0003H11.8661C12.5233 13.0003 13.0579 12.4706 13.0579 11.828V2.61198C13.0576 1.98028 12.5358 1.4663 11.9004 1.4474ZM11.5148 11.254C11.5148 11.5321 11.2841 11.7579 10.9995 11.7579H2.09288C1.80827 11.7579 1.57759 11.5323 1.57759 11.254V6.49373C1.57759 6.21544 1.80827 5.98987 2.09288 5.98987H10.9995C11.2841 5.98987 11.5148 6.21544 11.5148 6.49373V11.254Z" />
<path d="M11.9004 1.4474V3.01996C11.9004 3.73075 11.3108 4.30359 10.5839 4.30359H9.75349C9.02659 4.30359 8.42906 3.73075 8.42906 3.01996V1.4418H4.6859V3.01996C4.6859 3.73075 4.08837 4.30359 3.36175 4.30359H2.53108C1.80446 4.30359 1.21455 3.73075 1.21455 3.01996V1.4474C0.579709 1.4663 0.0576172 1.98028 0.0576172 2.61198V11.828C0.0576172 12.4716 0.591147 13.0003 1.24941 13.0003H11.8661C12.5233 13.0003 13.0579 12.4706 13.0579 11.828V2.61198C13.0576 1.98028 12.5358 1.4663 11.9004 1.4474ZM11.5148 11.254C11.5148 11.5321 11.2841 11.7579 10.9995 11.7579H2.09288C1.80827 11.7579 1.57759 11.5323 1.57759 11.254V6.49373C1.57759 6.21544 1.80827 5.98987 2.09288 5.98987H10.9995C11.2841 5.98987 11.5148 6.21544 11.5148 6.49373V11.254Z" />
<path d="M2.52821 3.46072H3.34962C3.59909 3.46072 3.80117 3.26338 3.80117 3.01944V0.441278C3.80117 0.197337 3.59909 0 3.34962 0H2.52821C2.27874 0 2.07666 0.197603 2.07666 0.441278V3.01944C2.07666 3.26312 2.27874 3.46072 2.52821 3.46072Z" />
<path d="M2.52821 3.46072H3.34962C3.59909 3.46072 3.80117 3.26338 3.80117 3.01944V0.441278C3.80117 0.197337 3.59909 0 3.34962 0H2.52821C2.27874 0 2.07666 0.197603 2.07666 0.441278V3.01944C2.07666 3.26312 2.27874 3.46072 2.52821 3.46072Z" />
<path d="M9.74306 3.46072H10.5645C10.8137 3.46072 11.0157 3.26338 11.0157 3.01944V0.441278C11.0157 0.197337 10.8137 0 10.5645 0H9.74306C9.49386 0 9.2915 0.197603 9.2915 0.441278V3.01944C9.29178 3.26312 9.49386 3.46072 9.74306 3.46072Z" />
<path d="M9.74306 3.46072H10.5645C10.8137 3.46072 11.0157 3.26338 11.0157 3.01944V0.441278C11.0157 0.197337 10.8137 0 10.5645 0H9.74306C9.49386 0 9.2915 0.197603 9.2915 0.441278V3.01944C9.29178 3.26312 9.49386 3.46072 9.74306 3.46072Z" />
</svg>
