<svg width="118" height="33" viewBox="0 0 118 33" fill="none" xmlns="http://www.w3.org/2000/svg">
<path d="M117.274 28.481C117.274 26.6615 115.985 25.3292 114.208 25.3292C112.436 25.3292 111.145 26.6615 111.145 28.481C111.145 30.2975 112.436 31.6276 114.208 31.6276C115.985 31.6276 117.274 30.2953 117.274 28.481ZM113.403 28.6426V30.7013H112.739V26.1618H114.39C115.358 26.1618 115.801 26.5847 115.801 27.4092C115.801 27.9171 115.459 28.3193 115.017 28.3776V28.3968C115.4 28.4581 115.541 28.8006 115.62 29.4273C115.681 29.8333 115.761 30.5374 115.906 30.7028H115.119C114.937 30.2761 114.955 29.6723 114.814 29.1667C114.697 28.7822 114.493 28.6419 114.052 28.6419H113.407V28.6441L113.403 28.6426ZM114.227 28.0558C114.873 28.0558 115.057 27.7119 115.057 27.4085C115.057 27.0498 114.873 26.7663 114.227 26.7663H113.403V28.0573H114.227V28.0558ZM110.414 28.481C110.414 26.2393 112.193 24.7239 114.206 24.7239C116.225 24.7239 118.001 26.2393 118.001 28.481C118.001 30.7183 116.226 32.2351 114.206 32.2351C112.193 32.2351 110.414 30.7183 110.414 28.481Z" fill="#2A4CC5"/>
<path d="M97.2743 31.5804L92.9031 26.674L88.5707 31.5804H79.4535L88.3639 21.561L79.4535 11.5387H88.8553L93.2704 16.4074L97.5193 11.5387H106.592L97.7256 21.519L106.715 31.5804H97.2743ZM61.947 31.5804V0.00841522H79.4535V7.04573H69.3626V11.5387H79.4535V18.3103H69.3626V24.5254H79.4535V31.5804H61.947Z" fill="#2A4CC5"/>
<path d="M54.5594 0.0084877V12.9294H54.4773C52.8423 11.0487 50.799 10.3932 48.4291 10.3932C43.5737 10.3932 39.9157 13.6993 38.6318 18.0668C37.1671 13.2535 33.3905 10.3032 27.7915 10.3032C23.2434 10.3032 19.6533 12.3456 17.7778 15.6745V11.5381H8.37858V7.04654H18.637V0.00996596H0V31.5805H8.37858V18.3104H16.7299C16.4727 19.3308 16.344 20.3795 16.3471 21.4319C16.3471 28.0145 21.3731 32.6404 27.79 32.6404C33.184 32.6404 36.7416 30.1035 38.6215 25.485H31.4405C30.47 26.8749 29.7325 27.2853 27.7907 27.2853C25.5399 27.2853 23.5974 25.3189 23.5974 22.9909H38.2188C38.853 28.2205 42.924 32.7297 48.5112 32.7297C50.9213 32.7297 53.1279 31.5436 54.4768 29.5395H54.558V31.5849H61.9453V0.00996596H54.5594V0.0084877ZM23.8304 18.4049C24.2972 16.3986 25.8511 15.0877 27.7907 15.0877C29.9265 15.0877 31.4015 16.3581 31.7886 18.4049H23.8304ZM50.0759 26.776C47.3539 26.776 45.6622 24.2376 45.6622 21.5862C45.6622 18.7518 47.1343 16.0289 50.0759 16.0289C53.1288 16.0289 54.3447 18.7533 54.3447 21.5862C54.3447 24.2715 53.0571 26.776 50.0759 26.776Z" fill="#2A4CC5"/>
</svg>
