<svg width="160" height="160" viewBox="0 0 160 160" fill="none" xmlns="http://www.w3.org/2000/svg">
<rect width="160" height="160" rx="4" fill="#F2F2F2"/>
<path d="M66 70H67H93H94V71V91V92H93H67H66V91V71V70ZM68 72V84.875L74.25 78.625L75 77.875L75.75 78.625L81.5 84.375L85.25 80.625L86 79.875L86.75 80.625L92 85.875V72H68ZM86.5625 74.625C86.9792 74.2083 87.4583 74 88 74C88.5417 74 89 74.2083 89.375 74.625C89.7917 75 90 75.4583 90 76C90 76.5417 89.7917 77.0208 89.375 77.4375C89 77.8125 88.5417 78 88 78C87.4583 78 86.9792 77.8125 86.5625 77.4375C86.1875 77.0208 86 76.5417 86 76C86 75.4583 86.1875 75 86.5625 74.625ZM75 80.75L68 87.75V90H84.1875L75 80.75ZM86 82.75L82.875 85.8125L87 90H92V88.75L86 82.75Z" fill="#778CA2"/>
</svg>
