<svg width="96" height="96" viewBox="0 0 96 96" fill="none" xmlns="http://www.w3.org/2000/svg">
<rect width="96" height="96" rx="48" fill="#F2F2F2"/>
<path d="M34 38H35H61H62V39V59V60H61H35H34V59V39V38ZM36 40V52.875L42.25 46.625L43 45.875L43.75 46.625L49.5 52.375L53.25 48.625L54 47.875L54.75 48.625L60 53.875V40H36ZM54.5625 42.625C54.9792 42.2083 55.4583 42 56 42C56.5417 42 57 42.2083 57.375 42.625C57.7917 43 58 43.4583 58 44C58 44.5417 57.7917 45.0208 57.375 45.4375C57 45.8125 56.5417 46 56 46C55.4583 46 54.9792 45.8125 54.5625 45.4375C54.1875 45.0208 54 44.5417 54 44C54 43.4583 54.1875 43 54.5625 42.625ZM43 48.75L36 55.75V58H52.1875L43 48.75ZM54 50.75L50.875 53.8125L55 58H60V56.75L54 50.75Z" fill="#778CA2"/>
</svg>
