<svg width="189" height="60" viewBox="0 0 189 60" fill="none" xmlns="http://www.w3.org/2000/svg">
<path d="M117.348 21.2021C118.313 21.6176 119.135 22.3046 119.715 23.1793C120.261 24.0905 120.55 25.1327 120.55 26.1948C120.55 27.2569 120.261 28.2991 119.715 29.2104C119.142 30.0879 118.317 30.7726 117.348 31.1751C116.203 31.6586 114.967 31.8918 113.724 31.8591H110.573V36.1865H106.936V20.5181H113.724C114.967 20.4854 116.203 20.7186 117.348 21.2021ZM116.016 28.2031C116.299 27.9552 116.523 27.6461 116.67 27.2993C116.816 26.9525 116.882 26.577 116.862 26.201C116.886 25.821 116.822 25.4406 116.675 25.0892C116.528 24.7377 116.303 24.4247 116.016 24.1741C115.294 23.6547 114.412 23.404 113.525 23.4653H110.573V28.9119H113.525C114.412 28.9732 115.294 28.7225 116.016 28.2031Z" fill="white"/>
<path d="M126.179 35.5648C125.201 35.0637 124.382 34.3018 123.812 33.3637C123.258 32.3874 122.966 31.2841 122.966 30.1616C122.966 29.0392 123.258 27.9359 123.812 26.9596C124.378 26.0186 125.198 25.2558 126.179 24.7585C127.237 24.2146 128.414 23.9412 129.604 23.9627C130.786 23.9396 131.955 24.2132 133.004 24.7585C133.983 25.2526 134.8 26.0164 135.358 26.9596C135.921 27.9331 136.217 29.0375 136.217 30.1616C136.217 31.2858 135.921 32.3902 135.358 33.3637C134.796 34.3038 133.98 35.0667 133.004 35.5648C131.955 36.1101 130.786 36.3837 129.604 36.3606C128.414 36.3821 127.237 36.1087 126.179 35.5648ZM131.808 32.5927C132.109 32.2557 132.34 31.8623 132.488 31.4354C132.635 31.0084 132.696 30.5564 132.667 30.1057C132.711 29.2161 132.402 28.3453 131.808 27.6808C131.22 27.0984 130.426 26.7715 129.597 26.7715C128.769 26.7715 127.975 27.0984 127.387 27.6808C127.086 28.0068 126.854 28.3889 126.702 28.805C126.55 29.2212 126.482 29.6632 126.502 30.1057C126.475 30.5583 126.539 31.0119 126.691 31.4392C126.842 31.8666 127.079 32.2589 127.387 32.5927C127.975 33.1752 128.769 33.502 129.597 33.502C130.426 33.502 131.22 33.1752 131.808 32.5927Z" fill="white"/>
<path d="M140.738 35.9876C139.928 35.8099 139.154 35.4989 138.446 35.0674L139.617 32.5803C140.224 32.9565 140.883 33.2414 141.572 33.4259C142.301 33.6351 143.056 33.7439 143.814 33.7492C145.284 33.7492 146.031 33.3762 146.031 32.6425C146.027 32.4696 145.964 32.3032 145.853 32.1701C145.743 32.0371 145.59 31.945 145.421 31.9088C144.817 31.7177 144.195 31.5885 143.565 31.5233C142.723 31.4153 141.891 31.2449 141.074 31.0135C140.436 30.8241 139.86 30.4678 139.405 29.9814C138.9 29.4019 138.645 28.6464 138.695 27.8798C138.683 27.1495 138.915 26.436 139.355 25.8529C139.857 25.2218 140.526 24.7437 141.286 24.4726C142.244 24.1294 143.257 23.965 144.275 23.9876C145.113 23.9899 145.948 24.0816 146.766 24.2612C147.503 24.4095 148.213 24.6695 148.871 25.0321L147.7 27.5192C146.64 26.9221 145.442 26.6134 144.225 26.6238C143.648 26.5935 143.072 26.7001 142.544 26.9347C142.384 27.004 142.247 27.1163 142.148 27.2592C142.049 27.402 141.992 27.5695 141.983 27.743C141.981 27.9233 142.04 28.099 142.151 28.2413C142.262 28.3837 142.418 28.4842 142.594 28.5264C143.217 28.7306 143.86 28.8722 144.512 28.9492C145.351 29.0807 146.183 29.2593 147.003 29.484C147.629 29.6697 148.193 30.0222 148.634 30.5036C149.127 31.0698 149.378 31.8067 149.332 32.5555C149.341 33.2758 149.104 33.9779 148.659 34.5451C148.15 35.1794 147.466 35.6507 146.691 35.9005C145.712 36.2455 144.678 36.4098 143.64 36.3855C142.66 36.3759 141.685 36.2422 140.738 35.9876Z" fill="white"/>
<path d="M160.242 35.6021C159.868 35.8717 159.445 36.066 158.997 36.1741C158.479 36.3003 157.948 36.3629 157.415 36.3606C156.206 36.4415 155.013 36.049 154.089 35.2663C153.677 34.8427 153.358 34.3369 153.154 33.782C152.95 33.227 152.866 32.6353 152.906 32.0456V27.0715H151.051V24.4104H152.906V21.4756H156.406V24.4104H159.42V27.0964H156.419V31.9959C156.39 32.4246 156.528 32.8479 156.805 33.1772C156.951 33.3185 157.125 33.4279 157.316 33.4986C157.506 33.5692 157.71 33.5995 157.913 33.5876C158.423 33.6032 158.924 33.4454 159.333 33.1399L160.242 35.6021Z" fill="white"/>
<path d="M172.398 25.2932C172.925 25.8138 173.334 26.4425 173.594 27.1361C173.854 27.8296 173.96 28.5713 173.905 29.3098V36.1865H170.629V34.6818C170.229 35.2701 169.675 35.7376 169.027 36.0336C168.379 36.3296 167.663 36.4427 166.955 36.3606C166.125 36.3786 165.301 36.2174 164.539 35.8881C163.913 35.6288 163.373 35.1976 162.982 34.6445C162.62 34.0857 162.434 33.432 162.446 32.7668C162.426 32.2579 162.528 31.7515 162.745 31.2905C162.962 30.8294 163.287 30.4273 163.692 30.1181C164.866 29.3936 166.239 29.0584 167.615 29.1606H170.393C170.412 28.8352 170.36 28.5095 170.239 28.2065C170.119 27.9035 169.933 27.6307 169.695 27.4072C169.102 26.9524 168.361 26.7311 167.615 26.7855C166.968 26.7855 166.325 26.8862 165.71 27.0839C165.144 27.2682 164.614 27.5456 164.14 27.9046L162.895 25.4176C163.618 24.9276 164.417 24.5619 165.261 24.3357C166.183 24.0857 167.134 23.9602 168.088 23.9627C169.64 23.8602 171.175 24.3341 172.398 25.2932ZM169.384 33.5751C169.85 33.2909 170.199 32.8499 170.368 32.3316V31.0881H167.964C166.532 31.0881 165.809 31.5482 165.809 32.4932C165.801 32.7021 165.846 32.9095 165.94 33.0964C166.033 33.2834 166.173 33.4437 166.345 33.5627C166.772 33.8437 167.279 33.979 167.79 33.9482C168.345 33.9687 168.895 33.8398 169.384 33.5751Z" fill="white"/>
<path d="M178.102 19.5731H181.602V36.1865H178.102V19.5731Z" fill="white"/>
<path d="M120.561 48.1119C121.097 48.8278 121.37 49.706 121.334 50.599C121.359 51.2205 121.225 51.8382 120.944 52.3933C120.663 52.9484 120.244 53.4223 119.727 53.77C118.315 54.5939 116.689 54.9792 115.056 54.8767H106.936V39.171H114.583C116.127 39.0727 117.663 39.455 118.98 40.2653C119.469 40.5887 119.868 41.0313 120.138 41.5513C120.408 42.0714 120.541 42.6517 120.524 43.2373C120.538 43.9569 120.344 44.6651 119.964 45.2767C119.597 45.8804 119.065 46.3677 118.432 46.6819C119.277 46.9169 120.024 47.4185 120.561 48.1119ZM110.598 41.8943V45.6249H114.21C114.917 45.673 115.623 45.5131 116.24 45.1648C116.467 45.0135 116.652 44.8053 116.774 44.561C116.896 44.3167 116.953 44.0447 116.937 43.772C116.954 43.5008 116.899 43.23 116.776 42.9874C116.653 42.7448 116.468 42.5392 116.24 42.3917C115.62 42.0494 114.916 41.8899 114.21 41.9316L110.598 41.8943ZM116.999 51.6311C117.239 51.4747 117.432 51.2574 117.559 51.0016C117.686 50.7459 117.742 50.4609 117.722 50.1762C117.722 48.9326 116.763 48.2363 114.832 48.2363H110.598V52.1036H114.832C115.568 52.1408 116.3 51.9774 116.95 51.6311H116.999Z" fill="white"/>
<path d="M129.878 43.0632C130.669 42.747 131.516 42.5947 132.369 42.6155V45.8363H131.584C131.155 45.8136 130.726 45.8767 130.322 46.0219C129.917 46.1672 129.546 46.3915 129.23 46.6819C128.932 47.0202 128.703 47.4141 128.558 47.8409C128.412 48.2678 128.353 48.7191 128.383 49.1689V54.8394H124.883V42.7896H128.221V44.3813C128.641 43.7977 129.214 43.3415 129.878 43.0632Z" fill="white"/>
<path d="M135.607 40.5513C135.419 40.3724 135.269 40.1573 135.167 39.919C135.064 39.6807 135.012 39.4241 135.012 39.1648C135.012 38.9055 135.064 38.6489 135.167 38.4106C135.269 38.1722 135.419 37.9571 135.607 37.7782C136.051 37.4188 136.605 37.2226 137.176 37.2226C137.747 37.2226 138.302 37.4188 138.745 37.7782C138.941 37.9427 139.097 38.1486 139.202 38.381C139.308 38.6133 139.36 38.8662 139.356 39.1212C139.365 39.3915 139.315 39.6605 139.209 39.9095C139.104 40.1586 138.946 40.3818 138.745 40.5637C138.535 40.7586 138.288 40.9096 138.018 41.0078C137.749 41.106 137.463 41.1495 137.176 41.1358C136.597 41.1507 136.035 40.9412 135.607 40.5513ZM135.432 42.7896H138.932V54.8394H135.432V42.7896Z" fill="white"/>
<path d="M155.472 38.2259V54.8394H152.134V53.4715C151.671 53.9982 151.094 54.413 150.447 54.6844C149.799 54.9559 149.099 55.0769 148.398 55.0383C147.324 55.0545 146.264 54.7932 145.321 54.2798C144.405 53.7773 143.652 53.0218 143.154 52.1036C142.638 51.0927 142.369 49.9741 142.369 48.8394C142.369 47.7046 142.638 46.5861 143.154 45.5751C143.652 44.6569 144.405 43.9014 145.321 43.3989C146.264 42.8855 147.324 42.6242 148.398 42.6404C149.07 42.6023 149.742 42.713 150.367 42.9645C150.991 43.2161 151.552 43.6022 152.01 44.0953V38.2508L155.472 38.2259ZM151.163 51.2456C151.745 50.569 152.065 49.7065 152.065 48.8145C152.065 47.9225 151.745 47.06 151.163 46.3834C150.882 46.087 150.541 45.8531 150.163 45.6967C149.786 45.5403 149.379 45.465 148.971 45.4756C148.558 45.4653 148.148 45.5407 147.767 45.697C147.385 45.8532 147.04 46.087 146.754 46.3834C146.19 47.0686 145.882 47.9278 145.882 48.8145C145.882 49.7012 146.19 50.5604 146.754 51.2456C147.04 51.542 147.385 51.7757 147.767 51.932C148.148 52.0883 148.558 52.1637 148.971 52.1533C149.379 52.164 149.786 52.0887 150.163 51.9323C150.541 51.7759 150.882 51.5419 151.163 51.2456Z" fill="white"/>
<path d="M172.149 42.7896V52.8249C172.227 53.7279 172.114 54.6372 171.818 55.494C171.522 56.3508 171.049 57.136 170.43 57.799C169.015 58.9562 167.211 59.53 165.386 59.4031C164.263 59.4114 163.145 59.2692 162.06 58.9803C161.119 58.742 160.234 58.3193 159.457 57.7368L160.852 55.2497C161.424 55.7072 162.08 56.0493 162.783 56.257C163.537 56.492 164.322 56.6135 165.112 56.6176C166.075 56.6956 167.031 56.4068 167.79 55.8093C168.097 55.4764 168.332 55.0835 168.48 54.6555C168.628 54.2275 168.685 53.7736 168.649 53.3223V52.8C168.161 53.3123 167.568 53.7123 166.91 53.9721C166.251 54.232 165.544 54.3455 164.838 54.3047C163.78 54.3126 162.736 54.0606 161.799 53.571C160.902 53.0991 160.149 52.3946 159.619 51.5316C159.089 50.6037 158.809 49.5536 158.809 48.485C158.809 47.4164 159.089 46.3663 159.619 45.4383C160.145 44.5688 160.899 43.8593 161.799 43.3865C162.737 42.9007 163.781 42.653 164.838 42.6653C165.593 42.6163 166.348 42.7462 167.043 43.0444C167.738 43.3427 168.352 43.8008 168.836 44.3813V42.7896H172.149ZM167.815 50.5741C168.38 50.0056 168.698 49.2367 168.698 48.4352C168.698 47.6338 168.38 46.8648 167.815 46.2964C167.173 45.7666 166.367 45.4767 165.535 45.4767C164.703 45.4767 163.897 45.7666 163.256 46.2964C162.971 46.5753 162.745 46.9082 162.591 47.2754C162.437 47.6427 162.357 48.037 162.357 48.4352C162.357 48.8335 162.437 49.2278 162.591 49.595C162.745 49.9623 162.971 50.2951 163.256 50.5741C163.9 51.0972 164.705 51.3828 165.535 51.3828C166.366 51.3828 167.17 51.0972 167.815 50.5741Z" fill="white"/>
<path d="M188.153 49.8031H179.036C179.179 50.5191 179.594 51.152 180.194 51.5689C180.872 52.0186 181.673 52.2448 182.486 52.2155C183.055 52.2271 183.62 52.1343 184.155 51.942C184.664 51.7389 185.126 51.4343 185.513 51.0466L187.368 53.0611C186.736 53.7358 185.96 54.2612 185.098 54.5989C184.236 54.9366 183.31 55.0782 182.386 55.0135C181.136 55.0398 179.898 54.7669 178.775 54.2176C177.773 53.7321 176.934 52.9677 176.358 52.0166C175.779 51.0477 175.481 49.9367 175.499 48.8083C175.49 47.6904 175.782 46.5907 176.346 45.6249C176.895 44.6891 177.692 43.923 178.65 43.4114C179.661 42.8722 180.792 42.5984 181.938 42.6155C183.052 42.5978 184.152 42.8586 185.139 43.3741C186.087 43.8704 186.87 44.6307 187.393 45.5627C187.957 46.5682 188.241 47.706 188.215 48.858C188.215 48.858 188.203 49.2186 188.153 49.8031ZM179.97 45.9233C179.426 46.3943 179.075 47.0499 178.986 47.7637H184.927C184.838 47.0536 184.487 46.4021 183.943 45.9357C183.391 45.4785 182.693 45.2356 181.975 45.2518C181.248 45.2298 180.537 45.4679 179.97 45.9233Z" fill="white"/>
<path d="M81.9393 26.1637L93.435 47.6269L92.9867 47.7513L81.4785 26.3005L81.9393 26.1637Z" fill="white"/>
<path d="M88.1046 25.5668L100.559 49.43L100.098 49.5544L87.6438 25.6912L88.1046 25.5668Z" fill="white"/>
<path fill-rule="evenodd" clip-rule="evenodd" d="M80.0589 25.4176L81.7901 25.1938L79.5233 54.6902H76.5342L80.0589 25.4176Z" fill="white"/>
<path fill-rule="evenodd" clip-rule="evenodd" d="M80.5444 25.7409L77.0945 54.3295L79.025 54.3171L81.217 25.6539L80.5444 25.7409Z" fill="#2A4CC5"/>
<path fill-rule="evenodd" clip-rule="evenodd" d="M81.79 25.1938L82.1637 25.2933L81.0552 54.7026H79.2119L81.79 25.1938Z" fill="white"/>
<path d="M42.757 2.98447L67.1433 42.3295L80.121 26.1886L80.5445 26.3627L67.3301 42.8145L67.081 43.113L66.8942 42.7896L42.3086 3.13369L42.757 2.98447Z" fill="white"/>
<path fill-rule="evenodd" clip-rule="evenodd" d="M38.7591 2.92226L41.8229 2.5119L37.8125 54.6653H32.5317L38.7591 2.92226Z" fill="white"/>
<path fill-rule="evenodd" clip-rule="evenodd" d="M39.6309 3.48186L33.5281 54.0187L36.9282 54.0062L40.8141 3.33264L39.6309 3.48186Z" fill="#2A4CC5"/>
<path fill-rule="evenodd" clip-rule="evenodd" d="M41.8228 2.5119L42.8566 2.9347L41.2624 54.8145L37.2644 54.6901L41.8228 2.5119Z" fill="white"/>
<path d="M55.5604 1.70361L76.0858 42.143L85.6759 25.7036L86.1243 25.8404L76.2975 42.7026L76.0609 43.1129L75.8491 42.6901L55.0996 1.82797L55.5604 1.70361Z" fill="white"/>
<path fill-rule="evenodd" clip-rule="evenodd" d="M20.3758 28.9243L1.1333 29.9192L95.2285 50.7606L103.548 50.7482L20.3758 28.9243Z" fill="white"/>
<path fill-rule="evenodd" clip-rule="evenodd" d="M20.3758 25.8902L1.12085 27.1213V29.9316L20.3758 28.9244V25.8902Z" fill="white"/>
<path fill-rule="evenodd" clip-rule="evenodd" d="M20.376 28.9244L103.548 50.7482V50.2384L20.376 25.8902V28.9244Z" fill="white"/>
<path fill-rule="evenodd" clip-rule="evenodd" d="M20.9736 28.6259L90.3587 46.8311L20.9736 26.5244V28.6259Z" fill="#2A4CC5"/>
<path fill-rule="evenodd" clip-rule="evenodd" d="M87.3323 24.2363L85.489 24.485L87.9052 54.6902H91.2804L87.3323 24.2363Z" fill="white"/>
<path fill-rule="evenodd" clip-rule="evenodd" d="M86.8093 24.7088L86.0869 24.7958L88.4658 54.3046L90.6329 54.2922L86.8093 24.7088Z" fill="#2A4CC5"/>
<path fill-rule="evenodd" clip-rule="evenodd" d="M87.3323 24.2363L87.8927 24.485L92.5882 54.7275L91.1932 54.6902L87.3323 24.2363Z" fill="white"/>
<path fill-rule="evenodd" clip-rule="evenodd" d="M54.6013 0.83316L51.3381 1.25596L55.6225 54.6653H61.5759L54.6013 0.83316Z" fill="white"/>
<path fill-rule="evenodd" clip-rule="evenodd" d="M53.6674 1.65387L52.397 1.82796L56.5942 53.9689H60.4302L53.6674 1.65387Z" fill="#2A4CC5"/>
<path fill-rule="evenodd" clip-rule="evenodd" d="M54.6013 0.83316L55.5728 1.15648L63.8925 54.7275L61.4265 54.6653L54.6013 0.83316Z" fill="white"/>
<path d="M52.0607 1.79066L22.5057 26.7109L21.2229 26.3876L51.6995 1.46735L52.0607 1.79066Z" fill="white"/>
<path d="M39.2447 3.66839L4.30925 27.5813L2.85205 27.4321L38.9084 3.20828L39.2447 3.66839Z" fill="white"/>
</svg>
