<svg width="201" height="47" viewBox="0 0 201 47" fill="none" xmlns="http://www.w3.org/2000/svg">
<g clip-path="url(#clip0)">
<path d="M193.246 0.604736H2.63879V46.3956H193.246V0.604736Z" fill="#FFCC00" stroke="#FFCC00" stroke-width="4" stroke-miterlimit="10" stroke-linecap="round" stroke-linejoin="round"/>
<path d="M200.4 13.96H193.756V33.0375H200.4V13.96Z" fill="#FFCC00" stroke="#FFCC00" stroke-width="4" stroke-miterlimit="10" stroke-linecap="round" stroke-linejoin="round"/>
<path d="M1.20081 9.25635V37.7411" stroke="#FFCC00" stroke-width="8" stroke-miterlimit="10" stroke-linecap="round" stroke-linejoin="round"/>
<path d="M22.5277 16.4085H17.5022V35.3651H13.1522V16.4085H8.15967V12.908H22.5277V16.4085Z" fill="#404042"/>
<path d="M36.4815 25.5074H28.9913V31.8615H37.7995V35.362H24.6262V12.908H37.7694V16.4085H28.9913V22.0069H36.4815V25.5074Z" fill="#404042"/>
<path d="M51.9213 25.5074H44.4311V31.8615H53.2393V35.362H40.066V12.908H53.2093V16.4085H44.4311V22.0069H51.9213V25.5074Z" fill="#404042"/>
<path d="M71.1138 35.3651H66.7787L59.9609 21.0063L59.8679 21.0365V35.3651H55.5028V12.908H59.8679L66.6856 27.2516L66.7787 27.2214V12.908H71.1138V35.3651Z" fill="#404042"/>
<path d="M86.3706 25.5074H78.8803V31.8615H87.6885V35.362H74.5153V12.908H87.6585V16.4085H78.8803V22.0069H86.3706V25.5074Z" fill="#404042"/>
<path d="M94.3201 26.4324V35.3621H89.9701V12.9231H97.2472C99.4417 12.9231 101.165 13.5065 102.417 14.6734C103.669 15.8402 104.293 17.4635 104.293 19.5402C104.293 20.7131 104.032 21.7227 103.513 22.5722C102.993 23.4216 102.231 24.0957 101.231 24.6005C102.375 24.9905 103.2 25.6404 103.705 26.5443C104.209 27.4481 104.464 28.5817 104.464 29.939V31.529C104.464 32.1457 104.536 32.8077 104.677 33.512C104.822 34.2164 105.071 34.7273 105.428 35.0477V35.3711H100.925C100.568 35.0416 100.342 34.5066 100.252 33.766C100.159 33.0254 100.114 32.2696 100.114 31.4988V29.9722C100.114 28.8507 99.8861 27.9832 99.4327 27.3665C98.9794 26.7498 98.328 26.4415 97.4784 26.4415H94.3201V26.4324ZM94.3201 22.9319H97.2292C98.1178 22.9319 98.7903 22.6598 99.2526 22.1157C99.7119 21.5716 99.9431 20.7947 99.9431 19.7881C99.9431 18.7603 99.7119 17.9411 99.2526 17.3365C98.7933 16.7289 98.1238 16.4266 97.2472 16.4266H94.3201V22.9319Z" fill="#404042"/>
<path d="M122.522 32.0338C121.918 33.0011 121.015 33.8505 119.811 34.5851C118.607 35.3197 117.079 35.6885 115.23 35.6885C112.84 35.6885 110.922 34.9841 109.478 33.5755C108.034 32.1668 107.31 30.1626 107.31 27.5599V20.713C107.31 18.1315 108.007 16.1334 109.4 14.7126C110.793 13.2949 112.639 12.5845 114.936 12.5845C117.406 12.5845 119.259 13.1921 120.495 14.4103C121.729 15.6285 122.375 17.3697 122.426 19.6399L122.396 19.7336H118.307C118.277 18.467 117.998 17.542 117.472 16.9586C116.947 16.3752 116.142 16.085 115.059 16.085C113.996 16.085 113.164 16.4628 112.561 17.2186C111.957 17.9743 111.657 19.126 111.657 20.6677V27.5539C111.657 29.1288 111.96 30.2956 112.57 31.0513C113.176 31.8071 114.062 32.1849 115.227 32.1849C116.094 32.1849 116.737 32.067 117.148 31.8313C117.562 31.5955 117.902 31.2448 118.166 30.7823V26.7588H115.224V23.6725H122.516V32.0338H122.522Z" fill="#404042"/>
<path d="M130.378 35.3651H126.043V12.908H130.378V35.3651Z" fill="#404042"/>
<path d="M138.223 31.8645H146.785V35.3651H133.321V33.1583L141.684 16.4085H133.23V12.908H146.65V15.0361L138.223 31.8645Z" fill="#404042"/>
<path d="M161.138 25.5074H153.648V31.8615H162.456V35.362H149.283V12.908H162.426V16.4085H153.648V22.0069H161.138V25.5074Z" fill="#404042"/>
<path d="M169.088 26.4324V35.3621H164.738V12.9231H172.015C174.209 12.9231 175.932 13.5065 177.184 14.6734C178.436 15.8402 179.061 17.4635 179.061 19.5402C179.061 20.7131 178.799 21.7227 178.28 22.5722C177.761 23.4216 176.998 24.0957 175.998 24.6005C177.142 24.9905 177.968 25.6404 178.472 26.5443C178.977 27.4481 179.232 28.5817 179.232 29.939V31.529C179.232 32.1457 179.304 32.8077 179.445 33.512C179.589 34.2164 179.838 34.7273 180.195 35.0477V35.3711H175.692C175.335 35.0416 175.11 34.5066 175.017 33.766C174.924 33.0254 174.879 32.2696 174.879 31.4988V29.9722C174.879 28.8507 174.651 27.9832 174.197 27.3665C173.744 26.7498 173.092 26.4415 172.243 26.4415H169.088V26.4324ZM169.088 22.9319H172C172.888 22.9319 173.561 22.6598 174.023 22.1157C174.482 21.5716 174.714 20.7947 174.714 19.7881C174.714 18.7603 174.482 17.9411 174.023 17.3365C173.564 16.7289 172.894 16.4266 172.018 16.4266H169.091V22.9319H169.088Z" fill="#404042"/>
<path d="M186.917 27.5599H182.552V12.908H186.917V27.5599ZM186.887 35.3651H182.597V31.3869H186.887V35.3651Z" fill="#404042"/>
</g>
<defs>
<clipPath id="clip0">
<rect width="201" height="47" fill="white"/>
</clipPath>
</defs>
</svg>
