<svg width="84" height="82" viewBox="0 0 84 82" fill="none" xmlns="http://www.w3.org/2000/svg">
<path d="M65.8521 21.3671L75.219 38.8954L74.8536 38.9969L65.4766 21.4788L65.8521 21.3671Z" fill="white"/>
<path d="M70.8755 20.8796L81.0238 40.3679L80.6483 40.4694L70.5001 20.9811L70.8755 20.8796Z" fill="white"/>
<path fill-rule="evenodd" clip-rule="evenodd" d="M64.3198 20.7577L65.7304 20.5749L63.8834 44.6636H61.4478L64.3198 20.7577Z" fill="white"/>
<path fill-rule="evenodd" clip-rule="evenodd" d="M64.7155 21.0218L61.9045 44.3691L63.4775 44.359L65.2635 20.9507L64.7155 21.0218Z" fill="#2A4CC5"/>
<path fill-rule="evenodd" clip-rule="evenodd" d="M65.7303 20.5749L66.0348 20.6562L65.1316 44.6738H63.6296L65.7303 20.5749Z" fill="white"/>
<path d="M33.9257 2.43732L53.796 34.5691L64.3705 21.3874L64.7155 21.5295L53.9482 34.9652L53.7453 35.2089L53.593 34.9449L33.5604 2.55918L33.9257 2.43732Z" fill="white"/>
<path fill-rule="evenodd" clip-rule="evenodd" d="M30.6681 2.38652L33.1645 2.05139L29.8968 44.6433H25.5939L30.6681 2.38652Z" fill="white"/>
<path fill-rule="evenodd" clip-rule="evenodd" d="M31.3785 2.84354L26.4058 44.1153L29.1763 44.1051L32.3426 2.72168L31.3785 2.84354Z" fill="#2A4CC5"/>
<path fill-rule="evenodd" clip-rule="evenodd" d="M33.1646 2.05139L34.0069 2.39668L32.7079 44.7652L29.4503 44.6636L33.1646 2.05139Z" fill="white"/>
<path d="M44.3581 1.3913L61.0824 34.4168L68.8966 20.9913L69.2619 21.103L61.255 34.8738L61.0621 35.2089L60.8896 34.8636L43.9826 1.49285L44.3581 1.3913Z" fill="white"/>
<path fill-rule="evenodd" clip-rule="evenodd" d="M15.6892 23.6216L0.0101318 24.434L76.6803 41.4545L83.4594 41.4444L15.6892 23.6216Z" fill="white"/>
<path fill-rule="evenodd" clip-rule="evenodd" d="M15.6892 21.1436L0 22.149V24.4441L15.6892 23.6215V21.1436Z" fill="white"/>
<path fill-rule="evenodd" clip-rule="evenodd" d="M15.6893 23.6215L83.4594 41.4443V41.028L15.6893 21.1436V23.6215Z" fill="white"/>
<path fill-rule="evenodd" clip-rule="evenodd" d="M16.1764 23.3778L72.7124 38.2454L16.1764 21.6616V23.3778Z" fill="#2A4CC5"/>
<path fill-rule="evenodd" clip-rule="evenodd" d="M70.2463 19.7929L68.7444 19.996L70.7132 44.6636H73.4633L70.2463 19.7929Z" fill="white"/>
<path fill-rule="evenodd" clip-rule="evenodd" d="M69.8201 20.1789L69.2315 20.25L71.1698 44.3488L72.9356 44.3387L69.8201 20.1789Z" fill="#2A4CC5"/>
<path fill-rule="evenodd" clip-rule="evenodd" d="M70.2463 19.7929L70.703 19.996L74.5289 44.6941L73.3923 44.6636L70.2463 19.7929Z" fill="white"/>
<path fill-rule="evenodd" clip-rule="evenodd" d="M43.5767 0.68042L40.9178 1.0257L44.4089 44.6433H49.2597L43.5767 0.68042Z" fill="white"/>
<path fill-rule="evenodd" clip-rule="evenodd" d="M42.8156 1.35065L41.7805 1.49282L45.2004 44.0746H48.3261L42.8156 1.35065Z" fill="#2A4CC5"/>
<path fill-rule="evenodd" clip-rule="evenodd" d="M43.5767 0.68042L44.3683 0.944461L51.1473 44.6941L49.138 44.6433L43.5767 0.68042Z" fill="white"/>
<path d="M41.5065 1.46241L17.4246 21.8139L16.3793 21.5499L41.2122 1.19836L41.5065 1.46241Z" fill="white"/>
<path d="M31.0639 2.99587L2.59799 22.5248L1.41064 22.4029L30.7899 2.62012L31.0639 2.99587Z" fill="white"/>
<path d="M17.484 50.3304C18.2698 50.6697 18.9398 51.2308 19.4121 51.9451C19.8575 52.6892 20.0927 53.5404 20.0927 54.4078C20.0927 55.2752 19.8575 56.1263 19.4121 56.8705C18.9452 57.5871 18.2733 58.1463 17.484 58.475C16.5506 58.8698 15.5437 59.0603 14.5308 59.0336H11.9633V62.5677H9V49.7718H14.5308C15.5437 49.7451 16.5506 49.9355 17.484 50.3304ZM16.3981 56.0479C16.6293 55.8454 16.8115 55.593 16.931 55.3098C17.0506 55.0266 17.1043 54.7199 17.0882 54.4129C17.1075 54.1025 17.0553 53.7918 16.9356 53.5048C16.816 53.2178 16.6321 52.9622 16.3981 52.7575C15.8098 52.3334 15.0918 52.1286 14.3684 52.1787H11.9633V56.6267H14.3684C15.0918 56.6768 15.8098 56.472 16.3981 56.0479Z" fill="white"/>
<path d="M24.6791 62.0599C23.8826 61.6507 23.2152 61.0285 22.7509 60.2624C22.2991 59.465 22.0615 58.564 22.0615 57.6474C22.0615 56.7307 22.2991 55.8297 22.7509 55.0323C23.2122 54.2639 23.8804 53.6409 24.6791 53.2348C25.5413 52.7906 26.5002 52.5673 27.4699 52.5849C28.4332 52.566 29.3858 52.7895 30.2403 53.2348C31.0382 53.6383 31.7038 54.2621 32.1584 55.0323C32.6171 55.8274 32.8586 56.7293 32.8586 57.6474C32.8586 58.5654 32.6171 59.4673 32.1584 60.2624C31.7007 61.0302 31.0359 61.6532 30.2403 62.0599C29.3858 62.5052 28.4332 62.7287 27.4699 62.7098C26.5002 62.7274 25.5413 62.5041 24.6791 62.0599ZM29.2661 59.6327C29.5115 59.3575 29.6998 59.0363 29.82 58.6876C29.9402 58.3389 29.99 57.9698 29.9663 57.6017C30.0015 56.8752 29.7501 56.164 29.2661 55.6214C28.7871 55.1457 28.1396 54.8788 27.4648 54.8788C26.79 54.8788 26.1425 55.1457 25.6635 55.6214C25.4188 55.8876 25.2291 56.1996 25.1055 56.5395C24.9818 56.8793 24.9266 57.2403 24.9429 57.6017C24.9203 57.9713 24.9725 58.3417 25.0963 58.6907C25.2201 59.0397 25.413 59.3601 25.6635 59.6327C26.1425 60.1084 26.79 60.3753 27.4648 60.3753C28.1396 60.3753 28.7871 60.1084 29.2661 59.6327Z" fill="white"/>
<path d="M36.5424 62.4052C35.8826 62.2601 35.2516 62.0061 34.6751 61.6537L35.629 59.6226C36.1234 59.9298 36.6602 60.1625 37.2223 60.3132C37.8164 60.484 38.4309 60.5728 39.049 60.5772C40.2465 60.5772 40.8554 60.2725 40.8554 59.6734C40.8517 59.5322 40.8006 59.3963 40.7105 59.2876C40.6203 59.1789 40.4962 59.1038 40.3581 59.0742C39.8661 58.9181 39.3595 58.8126 38.846 58.7594C38.1601 58.6712 37.4817 58.532 36.8164 58.343C36.2961 58.1884 35.8266 57.8973 35.4565 57.5001C35.0449 57.0269 34.8369 56.4099 34.8781 55.7838C34.8676 55.1874 35.057 54.6047 35.4159 54.1285C35.8248 53.6132 36.3697 53.2227 36.9889 53.0012C37.7697 52.721 38.5952 52.5868 39.4245 52.6052C40.1071 52.6071 40.7875 52.682 41.4541 52.8286C42.0546 52.9498 42.6329 53.1621 43.1692 53.4582L42.2153 55.4893C41.3517 55.0017 40.3754 54.7496 39.3839 54.7581C38.9136 54.7334 38.4441 54.8204 38.0139 55.012C37.8839 55.0686 37.7723 55.1603 37.6916 55.277C37.6109 55.3936 37.5644 55.5305 37.5572 55.6721C37.5554 55.8194 37.6036 55.9629 37.694 56.0791C37.7843 56.1953 37.9114 56.2774 38.0545 56.3119C38.5627 56.4786 39.0862 56.5943 39.6173 56.6572C40.3015 56.7646 40.9791 56.9104 41.647 57.0939C42.1574 57.2456 42.617 57.5334 42.9764 57.9266C43.3781 58.389 43.5822 58.9908 43.5447 59.6023C43.5526 60.1906 43.3592 60.7639 42.9967 61.2272C42.582 61.7452 42.0245 62.1301 41.3933 62.3341C40.5953 62.6158 39.7528 62.75 38.9069 62.7302C38.1082 62.7223 37.3137 62.6131 36.5424 62.4052Z" fill="white"/>
<path d="M52.4346 62.0904C52.1299 62.3106 51.7852 62.4693 51.4198 62.5575C50.998 62.6606 50.5652 62.7117 50.131 62.7099C49.146 62.7759 48.1741 62.4554 47.4214 61.8162C47.0849 61.4703 46.8251 61.0572 46.659 60.604C46.4928 60.1507 46.4241 59.6675 46.4573 59.1859V55.1238H44.9452V52.9505H46.4573V50.5538H49.3089V52.9505H51.7648V55.1441H49.3191V59.1453C49.2957 59.4955 49.4084 59.8411 49.6337 60.1101C49.7529 60.2255 49.8947 60.3148 50.0501 60.3725C50.2056 60.4302 50.3714 60.455 50.5369 60.4452C50.9528 60.458 51.3607 60.3291 51.6938 60.0796L52.4346 62.0904Z" fill="white"/>
<path d="M62.3393 53.6715C62.7693 54.0966 63.1018 54.6101 63.3138 55.1765C63.5258 55.7429 63.6123 56.3486 63.5673 56.9517V62.5677H60.8983V61.3389C60.572 61.8193 60.1205 62.2011 59.5927 62.4428C59.065 62.6845 58.4811 62.7769 57.9045 62.7099C57.2282 62.7246 56.5566 62.5929 55.9358 62.324C55.4255 62.1122 54.9857 61.7601 54.6672 61.3084C54.3726 60.852 54.2207 60.3181 54.2308 59.7749C54.214 59.3593 54.2974 58.9458 54.474 58.5692C54.6507 58.1927 54.9153 57.8643 55.2457 57.6118C56.2021 57.0201 57.321 56.7464 58.4424 56.8299H60.7054C60.7213 56.5641 60.6786 56.2981 60.5804 56.0507C60.4822 55.8032 60.3309 55.5804 60.1371 55.3979C59.6535 55.0265 59.0504 54.8458 58.4424 54.8902C57.9153 54.8902 57.3915 54.9725 56.8897 55.1339C56.4291 55.2844 55.9969 55.5109 55.611 55.8042L54.5962 53.7731C55.1851 53.3729 55.8368 53.0742 56.5244 52.8895C57.2752 52.6853 58.05 52.5829 58.828 52.5849C60.0923 52.5012 61.3429 52.8882 62.3393 53.6715ZM59.8834 60.435C60.263 60.2029 60.5473 59.8428 60.6851 59.4195V58.404H58.7265C57.5595 58.404 56.9709 58.7797 56.9709 59.5515C56.9644 59.7221 57.001 59.8915 57.0773 60.0441C57.1536 60.1968 57.267 60.3277 57.4072 60.4249C57.7553 60.6544 58.1684 60.7649 58.5845 60.7397C59.0369 60.7564 59.4855 60.6512 59.8834 60.435Z" fill="white"/>
<path d="M66.9872 49H69.8389V62.5677H66.9872V49Z" fill="white"/>
<path d="M20.1022 72.3067C20.5387 72.8914 20.7609 73.6086 20.7314 74.3378C20.7522 74.8454 20.6429 75.3499 20.4137 75.8032C20.1846 76.2565 19.8432 76.6435 19.4223 76.9275C18.2716 77.6004 16.9468 77.915 15.6167 77.8313H9V65.005H15.231C16.4888 64.9247 17.7405 65.2369 18.8134 65.8987C19.2121 66.1627 19.5369 66.5242 19.7571 66.9489C19.9773 67.3736 20.0856 67.8475 20.0718 68.3258C20.0833 68.9134 19.9247 69.4918 19.6151 69.9913C19.316 70.4844 18.8831 70.8823 18.3668 71.1389C19.056 71.3308 19.6647 71.7405 20.1022 72.3067ZM11.9836 67.229V70.2757H14.9266C15.5028 70.315 16.078 70.1843 16.5808 69.8999C16.7663 69.7763 16.9164 69.6064 17.0161 69.4068C17.1158 69.2073 17.1616 68.9852 17.1491 68.7625C17.1629 68.541 17.1176 68.3198 17.0177 68.1217C16.9178 67.9236 16.767 67.7557 16.5808 67.6352C16.0761 67.3557 15.5024 67.2254 14.9266 67.2595L11.9836 67.229ZM17.1998 75.1807C17.3947 75.053 17.552 74.8755 17.6554 74.6667C17.7589 74.4578 17.8048 74.2251 17.7884 73.9925C17.7884 72.977 17.007 72.4083 15.434 72.4083H11.9836V75.5666H15.434C16.0334 75.597 16.6298 75.4636 17.1592 75.1807H17.1998Z" fill="white"/>
<path d="M27.6931 68.1836C28.3379 67.9254 29.0285 67.801 29.7228 67.818V70.4483H29.0834C28.7339 70.4298 28.3842 70.4814 28.0548 70.5999C27.7254 70.7185 27.4231 70.9018 27.1654 71.1389C26.9223 71.4152 26.7361 71.7369 26.6177 72.0855C26.4993 72.434 26.4509 72.8026 26.4753 73.17V77.8008H23.6237V67.9602H26.3434V69.2601C26.6854 68.7835 27.1525 68.4109 27.6931 68.1836Z" fill="white"/>
<path d="M32.3613 66.1322C32.2081 65.9862 32.0861 65.8105 32.0028 65.6159C31.9194 65.4212 31.8765 65.2117 31.8765 64.9999C31.8765 64.7882 31.9194 64.5786 32.0028 64.384C32.0861 64.1893 32.2081 64.0136 32.3613 63.8676C32.7229 63.574 33.1744 63.4138 33.64 63.4138C34.1056 63.4138 34.5571 63.574 34.9187 63.8676C35.0778 64.0019 35.205 64.1701 35.291 64.3598C35.377 64.5495 35.4197 64.7561 35.4159 64.9644C35.4233 65.1851 35.3827 65.4047 35.2968 65.6081C35.2109 65.8115 35.0819 65.9938 34.9187 66.1424C34.7473 66.3015 34.546 66.4248 34.3264 66.505C34.1068 66.5852 33.8735 66.6208 33.64 66.6095C33.1681 66.6217 32.7099 66.4507 32.3613 66.1322ZM32.2192 67.9602H35.0709V77.8008H32.2192V67.9602Z" fill="white"/>
<path d="M48.5478 64.2332V77.8009H45.8281V76.6838C45.4506 77.1139 44.9804 77.4526 44.453 77.6743C43.9256 77.896 43.3548 77.9948 42.7836 77.9633C41.9086 77.9766 41.0451 77.7632 40.2769 77.3439C39.5299 76.9335 38.9169 76.3165 38.5111 75.5667C38.0906 74.7411 37.8713 73.8275 37.8713 72.9009C37.8713 71.9742 38.0906 71.0607 38.5111 70.2351C38.9169 69.4852 39.5299 68.8682 40.2769 68.4578C41.0451 68.0385 41.9086 67.8251 42.7836 67.8384C43.3313 67.8073 43.8791 67.8977 44.3879 68.1031C44.8966 68.3085 45.3537 68.6238 45.7266 69.0266V64.2535L48.5478 64.2332ZM45.0365 74.8659C45.5109 74.3134 45.7717 73.609 45.7717 72.8805C45.7717 72.1521 45.5109 71.4477 45.0365 70.8952C44.8074 70.6531 44.53 70.462 44.2223 70.3343C43.9145 70.2066 43.5834 70.1451 43.2504 70.1538C42.9144 70.1454 42.5803 70.2069 42.2694 70.3346C41.9584 70.4622 41.6773 70.6531 41.444 70.8952C40.9847 71.4547 40.7336 72.1564 40.7336 72.8805C40.7336 73.6047 40.9847 74.3064 41.444 74.8659C41.6773 75.108 41.9584 75.2989 42.2694 75.4265C42.5803 75.5541 42.9144 75.6157 43.2504 75.6073C43.5834 75.616 43.9145 75.5545 44.2223 75.4268C44.53 75.299 44.8074 75.108 45.0365 74.8659Z" fill="white"/>
<path d="M62.1364 67.9602V76.1557C62.1999 76.8931 62.108 77.6357 61.8668 78.3354C61.6256 79.0352 61.2403 79.6765 60.7359 80.2179C59.5829 81.1629 58.1127 81.6315 56.6258 81.5279C55.7113 81.5347 54.7999 81.4185 53.9163 81.1826C53.149 80.988 52.4281 80.6428 51.7953 80.1671L52.9319 78.136C53.398 78.5096 53.9322 78.789 54.5049 78.9586C55.1193 79.1505 55.7589 79.2497 56.4026 79.2531C57.1871 79.3168 57.9666 79.0809 58.5845 78.593C58.8348 78.3211 59.0263 78.0002 59.1468 77.6507C59.2673 77.3012 59.3143 76.9305 59.2847 76.5619V76.1354C58.8874 76.5537 58.4038 76.8804 57.8675 77.0926C57.3312 77.3048 56.7551 77.3975 56.1793 77.3642C55.3173 77.3706 54.467 77.1649 53.7032 76.765C52.9724 76.3796 52.3589 75.8043 51.9272 75.0995C51.4947 74.3417 51.2672 73.4841 51.2672 72.6114C51.2672 71.7387 51.4947 70.8811 51.9272 70.1233C52.3555 69.4132 52.9696 68.8338 53.7032 68.4477C54.4677 68.051 55.3181 67.8487 56.1793 67.8587C56.7943 67.8186 57.41 67.9247 57.9761 68.1683C58.5423 68.4119 59.0429 68.786 59.4369 69.2601V67.9602H62.1364ZM58.6048 74.3175C59.0658 73.8533 59.3246 73.2253 59.3246 72.5708C59.3246 71.9163 59.0658 71.2883 58.6048 70.8241C58.0825 70.3914 57.4257 70.1547 56.7476 70.1547C56.0696 70.1547 55.4128 70.3914 54.8905 70.8241C54.6585 71.0519 54.4743 71.3237 54.3485 71.6236C54.2227 71.9236 54.1579 72.2455 54.1579 72.5708C54.1579 72.8961 54.2227 73.2181 54.3485 73.518C54.4743 73.8179 54.6585 74.0897 54.8905 74.3175C55.4153 74.7447 56.0711 74.978 56.7476 74.978C57.4241 74.978 58.08 74.7447 58.6048 74.3175Z" fill="white"/>
<path d="M75.1769 73.6879H67.7483C67.8647 74.2726 68.203 74.7895 68.6921 75.13C69.244 75.4972 69.8971 75.6819 70.5594 75.658C71.0225 75.6675 71.4835 75.5917 71.9193 75.4346C72.3339 75.2688 72.7103 75.02 73.0254 74.7034L74.5375 76.3486C74.0219 76.8996 73.39 77.3286 72.6878 77.6045C71.9856 77.8803 71.2307 77.9959 70.4782 77.943C69.4594 77.9645 68.4503 77.7417 67.5352 77.2931C66.7193 76.8966 66.0356 76.2723 65.5665 75.4956C65.0941 74.7043 64.8516 73.797 64.8662 72.8754C64.8585 71.9625 65.0969 71.0644 65.5563 70.2757C66.0036 69.5114 66.6534 68.8858 67.4337 68.468C68.2573 68.0277 69.1792 67.804 70.1129 67.818C71.0203 67.8036 71.9169 68.0165 72.721 68.4375C73.4932 68.8429 74.1313 69.4638 74.5578 70.2249C75.0172 71.046 75.2484 71.9753 75.2276 72.9161C75.2276 72.9161 75.2175 73.2106 75.1769 73.6879ZM68.5095 70.5194C68.0658 70.904 67.7802 71.4395 67.7077 72.0224H72.5485C72.4755 71.4425 72.1898 70.9104 71.7468 70.5295C71.297 70.1561 70.7276 69.9578 70.1433 69.971C69.5508 69.953 68.9713 70.1475 68.5095 70.5194Z" fill="white"/>
</svg>
