<svg width="56" height="56" viewBox="0 0 56 56" fill="none" xmlns="http://www.w3.org/2000/svg">
<g clip-path="url(#clip0)">
<path d="M27.9998 53.9086C28.5684 53.6767 43.3502 48.4605 48.0403 45.3305C52.8728 42.0847 55.4312 37.4476 55.4312 31.8834V5.80078L55.0049 5.68486C43.2079 0.468344 28.5684 0.816112 27.8577 0.816112C27.2892 0.816112 12.6496 0.468344 0.852623 5.68486L0.568359 5.80078V31.9994C0.568359 37.5637 3.12673 42.2005 7.95921 45.4462C12.6496 48.5763 27.4313 53.7928 27.9998 53.9086Z" fill="#2A4CC5"/>
<path d="M27.9998 0.00461197C28.0054 0.191197 28.0054 0.191196 28.0055 0.191193L28.006 0.19118L28.008 0.191123L28.0162 0.190897L28.0495 0.190062C28.0791 0.18936 28.1233 0.188399 28.1817 0.187373C28.2985 0.18532 28.4717 0.183009 28.6966 0.181994C29.1466 0.179964 29.8038 0.183119 30.6313 0.203899C32.2863 0.245461 34.6221 0.357516 37.3437 0.639487C42.7562 1.20029 49.6831 2.43214 55.8132 5.11123V31.9993C55.8132 37.3834 53.4295 42.0795 48.3622 45.5235C45.9654 47.1333 40.869 49.3285 36.3521 51.1269C34.0975 52.0247 31.9936 52.8211 30.4533 53.393C29.6831 53.6794 29.054 53.909 28.6174 54.0672C28.3991 54.1464 28.229 54.208 28.1135 54.2494C28.0664 54.2662 28.0284 54.28 27.9998 54.2901C27.9713 54.28 27.9333 54.2662 27.8861 54.2494C27.7706 54.208 27.6005 54.1468 27.3822 54.0676C26.9456 53.9093 26.3164 53.6801 25.5462 53.3949C24.0058 52.8248 21.9018 52.0318 19.6471 51.1414C15.1311 49.3576 10.0345 47.1912 7.6361 45.6385C2.56975 42.1945 0.186523 37.4991 0.186523 32.1152V5.11123C6.31652 2.43214 13.2435 1.20029 18.6561 0.639487C21.3776 0.357516 23.7134 0.245461 25.3684 0.203899C26.1959 0.183119 26.8531 0.179964 27.303 0.181994C27.528 0.183009 27.7012 0.18532 27.8179 0.187373C27.8763 0.188399 27.9206 0.18936 27.9502 0.190062L27.9835 0.190897L27.9917 0.191123L27.9937 0.19118L27.9942 0.191193C27.9943 0.191196 27.9943 0.191197 27.9998 0.00461197ZM27.9998 0.00461197L28.0054 0.191197L27.9998 0.191361L27.9943 0.191197L27.9998 0.00461197ZM27.9374 52.5776L27.9998 52.5997L28.0622 52.5776C29.6985 51.9975 33.5032 50.6053 37.3795 49.0392C41.2483 47.4757 45.2105 45.7303 47.1481 44.4431C51.6057 41.5109 53.9122 37.1637 53.9122 32.1152V5.45298V5.2802L53.7401 5.26687C37.2447 3.99108 17.5697 4.68063 2.16147 16.3167L2.0873 16.3727V16.4656V32.1152C2.0873 37.2803 4.39441 41.5113 8.85108 44.4427C10.8601 45.7886 14.8223 47.5339 18.6739 49.0829C22.5326 50.6344 26.3017 51.9975 27.9374 52.5776Z" fill="#F1F5FE" stroke="#2A4CC5"/>
<path d="M43.7765 28.2898C45.9087 29.3331 46.7613 30.0286 46.9036 31.3038C46.9036 32.6949 45.7664 33.5063 43.9188 33.5063C42.3553 33.5063 40.5076 32.8108 39.2282 31.8834V35.5929C40.7917 36.2884 42.6394 36.8681 44.6292 36.8681C49.4617 36.8681 51.736 34.0859 51.736 31.5356C51.8779 29.2172 51.0252 27.3624 46.9036 25.3917C45.0556 24.4643 43.6343 23.8847 43.6343 22.4936C43.6343 21.1026 45.1978 20.5229 46.4769 20.5229C48.1826 20.5229 49.888 21.3344 50.8829 22.1459V18.6682C50.0303 18.0886 48.1826 17.2771 45.4819 17.393C42.213 17.509 38.8019 19.3637 38.8019 22.6096C38.9441 24.8121 39.7968 26.435 43.7765 28.2898ZM27.0049 36.6362C27.4313 36.7522 28.142 36.8681 29.279 36.8681C34.8222 36.8681 37.9492 32.8108 37.9492 27.0146C37.9492 21.1026 34.6801 17.509 28.8527 17.509C26.1522 17.509 24.0202 17.9726 22.1725 18.9V45.0987H27.0049V36.6362ZM27.0049 20.8707C27.4313 20.7548 28.142 20.5229 28.7105 20.5229C31.5532 20.5229 32.6902 22.3777 32.6902 26.8987C32.6902 31.3038 31.2689 33.3904 28.4262 33.3904C27.7156 33.3904 27.147 33.2745 26.8628 33.1585V20.8707H27.0049ZM12.0811 36.8681C15.0658 36.8681 17.6242 36.2884 19.4719 35.2452V17.7408H14.4973V32.9267C13.9288 33.2745 13.2181 33.3904 12.2232 33.3904C9.94907 33.3904 9.66481 31.6515 9.66481 30.6083V17.7408H4.69019V30.3764C4.69019 34.6655 7.24856 36.8681 12.0811 36.8681ZM45.1978 52.5175V55.1839H45.7664V54.1404H45.9087L46.7613 55.1839H47.4718C47.4718 55.1839 46.6191 54.1404 46.4769 54.0247C46.9036 53.9086 47.1877 53.6767 47.1877 53.3292C47.1877 52.9812 46.9036 52.5175 46.0505 52.5175H45.1978ZM46.0505 52.8655C46.4769 52.8655 46.6191 53.0973 46.6191 53.2131C46.6191 53.4449 46.4769 53.6767 45.9087 53.6767H45.7664V52.8655H46.0505Z" fill="#F1F5FE"/>
<path d="M48.3247 53.7929C48.3247 54.7202 47.3298 55.5318 46.1926 55.5318C45.0555 55.5318 44.0605 54.7202 44.0605 53.7929C44.0605 52.8655 45.0555 52.0539 46.1926 52.0539C47.4717 52.0539 48.3247 52.8655 48.3247 53.7929ZM46.1926 51.5902C44.7714 51.5902 43.4919 52.5175 43.4919 53.7929C43.4919 54.9521 44.6291 55.9955 46.1926 55.9955C47.6139 55.9955 48.893 55.0682 48.893 53.7929C48.893 52.6337 47.6139 51.5902 46.1926 51.5902Z" fill="#F1F5FE"/>
</g>
<defs>
<clipPath id="clip0">
<rect width="56" height="56" fill="white"/>
</clipPath>
</defs>
</svg>
