<svg width="78" height="78" viewBox="0 0 78 78" fill="none" xmlns="http://www.w3.org/2000/svg">
<path fill-rule="evenodd" clip-rule="evenodd" d="M19.5447 53.8235L18.2137 60.1363H19.6753L21.0055 53.8235H19.5447ZM21.6266 53.8235L21.3919 54.8951H23.3464L22.2401 60.1363H23.7013L24.8076 54.8951H26.7253L27.0122 53.8235H21.6266ZM32.4471 61.8354L31.1437 68.1404H35.4327L35.639 67.0978H32.8396L33.9496 61.8354H32.4471ZM27.5759 53.8235L26.2454 60.1363H30.8852L31.1199 59.0278H27.9441L28.2848 57.4141H31.0689L31.2866 56.4347H28.4908L28.8178 54.8769H32.0004L32.261 53.8235H27.5759ZM11.717 60.1363H13.0734L13.9608 55.702L15.5576 60.1363H17.3138L18.6443 53.8235H17.332L16.356 58.3362L14.9053 53.8235H13.0475L11.717 60.1363ZM48.5217 60.1363H49.9569L52.7108 55.3102L53.2702 59.0451H51.3492L50.6819 60.1363H54.8683L53.8803 53.8235H52.1843L48.5217 60.1363ZM7.95932 53.8235H6.49812L5.62972 57.9371C4.89608 61.103 10.6009 60.8686 11.1687 58.4151L12.1342 53.823H10.6993L9.83816 57.8405C9.59493 59.4061 6.58188 60.0552 7.17715 57.5796L7.95932 53.8235ZM32.9097 53.8235H35.5189C36.6786 53.8235 37.5401 54.0384 37.9921 54.6568C38.8698 55.8571 38.1171 58.2734 37.0169 59.1955C36.1959 59.8849 35.1142 60.1367 34.1616 60.1367H31.605L32.9097 53.8235Z" fill="#2A4CC5"/>
<path fill-rule="evenodd" clip-rule="evenodd" d="M34.1521 54.8951L33.2603 59.0508H34.278C34.8105 59.0508 35.4915 58.8774 36.0306 58.3821C36.7893 57.684 37.0944 56.3732 36.8281 55.6482C36.5974 55.0199 35.9727 54.8951 35.483 54.8951H34.1521Z" fill="white"/>
<path fill-rule="evenodd" clip-rule="evenodd" d="M7.71999 61.8293H4.74576L3.44116 68.1438H4.87606L5.98886 62.8628C5.98886 62.8628 7.03328 62.7597 7.54033 62.9911C7.84544 63.1306 7.97613 63.7316 7.66335 64.1572C7.17897 64.8154 6.89735 64.8011 5.77441 64.7309L5.85249 65.5941C5.85249 65.5941 6.15115 65.7449 6.45747 65.7466C9.76311 65.77 10.1649 61.8293 7.71999 61.8293ZM54.0639 61.8289L55.0459 68.1421H56.6804L60.3005 61.8289H58.8436L56.2037 66.6696L55.4783 61.8289H54.0639Z" fill="#2A4CC5"/>
<path fill-rule="evenodd" clip-rule="evenodd" d="M47.8773 68.1404H49.3121L50.4387 62.8849H51.5368C53.0101 62.8849 52.4472 64.6975 50.6953 64.6975H50.356L51.4254 68.1408H53.0491L52.0854 65.4238C54.3734 64.9424 54.7439 61.8276 52.0317 61.8276H49.1816L47.8773 68.1404ZM4.94821 60.7806L4.896 61.191H73.1805L73.2399 60.7806H4.94821ZM61.1018 53.8235L59.7706 60.1363H64.4107L64.6447 59.0278H61.4692L61.8107 57.4141H64.594L64.8115 56.4347H62.0161L62.3433 54.8769H65.5252L65.7861 53.8235H61.1018ZM55.166 53.8235L54.9315 54.8951H56.8858L55.7796 60.1363H57.2407L58.3471 54.8951H60.2654L60.5519 53.8235H55.166ZM45.6157 53.8235L45.3809 54.8951H47.3348L46.2289 60.1363H47.6897L48.796 54.8951H50.7139L51.0008 53.8235H45.6157ZM13.4059 61.7158C15.2483 61.7158 16.5712 63.0162 15.8901 65.5352C15.3005 67.7148 13.1162 68.3232 11.9973 68.3003C10.7542 68.2743 8.45132 67.3625 9.35894 64.5693C10.2156 61.9346 12.3842 61.7158 13.4059 61.7158Z" fill="#2A4CC5"/>
<path fill-rule="evenodd" clip-rule="evenodd" d="M13.3511 62.7922C12.4037 62.7202 11.4047 63.0682 10.8098 64.6728C10.2636 66.147 10.9664 67.1467 11.9975 67.2061C12.6356 67.2434 13.9783 67.0436 14.4809 65.2479C14.983 63.4513 14.0349 62.8446 13.3511 62.7922Z" fill="white"/>
<path fill-rule="evenodd" clip-rule="evenodd" d="M42.7941 62.9113L43.0288 61.8271H41.1499C38.501 61.8271 37.8596 63.4695 39.0607 64.6707L40.6607 66.053C40.9965 66.4218 40.6979 67.0882 40.1367 67.0553H37.7994L37.5647 68.1404H40.0545C42.6193 68.1404 42.7086 66.1709 41.9301 65.4273L40.237 63.8096C39.9618 63.5899 40.1399 62.9113 40.7372 62.9113H42.7941ZM20.8208 62.9113L21.0555 61.8271H19.1771C16.5282 61.8271 15.8868 63.4695 17.0878 64.6707L18.6874 66.053C19.0237 66.4218 18.7251 67.0882 18.1638 67.0553H15.8265L15.5914 68.1404H18.0808C20.6456 68.1404 20.7354 66.1709 19.9564 65.4273L18.2634 63.8096C17.9886 63.5899 18.167 62.9113 18.7639 62.9113H20.8208ZM44.8994 54.9155L45.1342 53.8304H43.2553C40.6061 53.8304 39.9651 55.4727 41.1665 56.6739L42.7653 58.0563C43.102 58.4259 42.8034 59.0915 42.2421 59.0586H39.9052L39.6705 60.1436H42.16C44.7247 60.1436 44.814 58.1741 44.0357 57.4305L42.3424 55.8133C42.0673 55.5928 42.2462 54.9155 42.8426 54.9155H44.8994ZM70.1471 54.9155L70.382 53.8304H68.503C65.8545 53.8304 65.2127 55.4727 66.4144 56.6739L68.0138 58.0563C68.3496 58.4259 68.0511 59.0915 67.4899 59.0586H65.1529L64.9181 60.1436H67.4076C69.9725 60.1436 70.0626 58.1741 69.2835 57.4305L67.59 55.8133C67.3148 55.5928 67.4938 54.9155 68.0905 54.9155H70.1471ZM21.5123 61.828L21.2776 62.8992H23.2321L22.1258 68.1412H23.587L24.6929 62.8992H26.611L26.8983 61.828H21.5123ZM24.4267 68.1391H25.8616L28.6149 63.313L29.1753 67.0471H27.2548L26.5864 68.1391H30.7729L29.7851 61.8254H28.0888L24.4267 68.1391ZM43.9027 61.8271L42.5727 68.1404H47.2121L47.4469 67.0315H44.271L44.6116 65.4177H47.3954L47.6133 64.4384H44.8175L45.1451 62.8801H48.3275L48.5879 61.8271H43.9027ZM68.315 61.8271L66.9842 68.1404H71.6243L71.8588 67.0315H68.6824L69.0239 65.4177H71.8076L72.0247 64.4384H69.2293L69.5569 62.8801H72.7384L72.9993 61.8271H68.315ZM72.4494 67.1043L72.4225 67.2282H72.7735L72.5794 68.1412H72.7198L72.9144 67.2282H73.2649L73.2909 67.1043H72.4494ZM74.2022 68.1412H74.3383L74.5589 67.1043H74.3595L73.8759 67.9848L73.7659 67.1043H73.5652L73.3447 68.1412H73.4807L73.664 67.2607L73.7724 68.1412H73.9106L74.3929 67.2607L74.2022 68.1412ZM67.6364 61.9346C65.4337 61.2928 62.6262 61.9073 61.8947 64.9055C61.6798 65.7878 61.6694 68.2188 64.7863 68.2708C65.1828 68.2708 66.0426 68.2955 66.4191 68.1083L66.7233 66.9764C66.3086 67.1654 65.6794 67.207 65.1074 67.207C64.3981 67.207 63.8768 66.947 63.5834 66.5288C63.2892 66.1098 63.0651 64.8895 64.1688 63.5184C64.7664 62.7766 65.9464 62.5915 67.4639 62.9976L67.6364 61.9346ZM60.6497 61.8271L59.3185 68.1404H60.7797L62.1101 61.8271H60.6497ZM47.3889 18.8355C42.79 18.2366 17.9518 18.4523 14.3014 18.4875L7.71191 49.0633C17.7996 43.9868 26.7794 39.6053 36.7691 34.8389C49.4697 28.7795 58.207 27.2265 60.0197 27.1383C61.2391 27.0792 60.5475 26.5479 59.9681 26.42C52.874 24.8556 35.668 32.8334 35.668 32.8334L31.9088 21.4277L56.4039 21.4508C55.0524 19.4494 52.3557 19.4826 47.3889 18.8355Z" fill="#2A4CC5"/>
<path fill-rule="evenodd" clip-rule="evenodd" d="M18.0285 9.70004C29.2295 12.1583 40.43 14.6189 51.6298 17.0818C57.0157 18.2691 57.7038 20.1143 57.7038 20.1143C57.7038 20.1143 63.5971 19.4021 64.6783 21.4533C66.065 24.0812 62.5199 29.0742 62.5199 29.0742L11.5742 49.0629H64.4803L73.1565 9.70004H18.0285Z" fill="#2A4CC5"/>
<path fill-rule="evenodd" clip-rule="evenodd" d="M56.6246 21.4893C56.6246 21.4893 56.3716 22.9076 51.1356 23.3467C50.6559 23.3867 50.5415 23.6935 51.1746 23.7137C51.8068 23.7339 60.558 23.4325 61.533 23.528C62.508 23.6235 62.378 24.2122 62.2528 24.7824C62.1267 25.3521 61.471 27.0602 61.3029 27.4612C61.1352 27.8626 61.4554 27.8533 61.7128 27.5915C61.9698 27.3293 63.5424 24.1706 63.5879 23.4235C63.6329 22.6766 63.3656 21.9008 62.1501 21.633C60.9341 21.3639 56.6246 21.4893 56.6246 21.4893Z" fill="#2A4CC5"/>
</svg>
