<svg width="55" height="54" viewBox="0 0 55 54" fill="none" xmlns="http://www.w3.org/2000/svg">
<g filter="url(#filter0_d)">
<path d="M46.0699 4H8.06995C5.86081 4 4.06995 5.79086 4.06995 8V46C4.06995 48.2091 5.86081 50 8.06995 50H46.0699C48.2791 50 50.0699 48.2091 50.0699 46V8C50.0699 5.79086 48.2791 4 46.0699 4Z" fill="white"/>
<path d="M19.32 29.93L18.32 33.73L14.6 33.81C13.4701 31.7144 12.8694 29.3744 12.8502 26.9937C12.831 24.6129 13.394 22.2636 14.49 20.15V20.15L17.8 20.76L19.25 24.05C18.9403 24.9615 18.7816 25.9174 18.78 26.88C18.774 27.921 18.9569 28.9544 19.32 29.93V29.93Z" fill="#FBBB00"/>
<path d="M41.83 24.14C42.3239 26.7487 42.0991 29.4427 41.1796 31.9334C40.2601 34.4242 38.6805 36.618 36.61 38.28V38.28L32.44 38.07L31.85 34.38C33.5748 33.3724 34.8993 31.8007 35.6 29.93H27.78V24.14H41.78H41.83Z" fill="#518EF8"/>
<path d="M36.61 38.28C34.938 39.618 32.9924 40.5724 30.9109 41.0757C28.8294 41.5789 26.6627 41.6188 24.5641 41.1924C22.4655 40.766 20.4862 39.8837 18.7661 38.6081C17.0461 37.3324 15.6272 35.6944 14.61 33.81L19.35 29.93C19.7943 31.1162 20.4926 32.1909 21.396 33.0789C22.2993 33.9669 23.3859 34.6467 24.5795 35.0706C25.7732 35.4945 27.0451 35.6523 28.3062 35.5331C29.5672 35.4138 30.787 35.0202 31.88 34.38L36.61 38.28Z" fill="#28B446"/>
<path d="M36.79 15.62L32.06 19.5C30.6822 18.6341 29.0872 18.1764 27.46 18.18C25.6484 18.1823 23.8825 18.7488 22.4076 19.8007C20.9327 20.8527 19.8221 22.3379 19.23 24.05L14.47 20.15C15.4743 18.2097 16.9007 16.5192 18.6444 15.2027C20.388 13.8863 22.4046 12.9773 24.5457 12.5428C26.6869 12.1082 28.8982 12.1591 31.0171 12.6916C33.136 13.2241 35.1087 14.2248 36.79 15.62V15.62Z" fill="#F14336"/>
</g>
<defs>
<filter id="filter0_d" x="0.0699463" y="0" width="54" height="54" filterUnits="userSpaceOnUse" color-interpolation-filters="sRGB">
<feFlood flood-opacity="0" result="BackgroundImageFix"/>
<feColorMatrix in="SourceAlpha" type="matrix" values="0 0 0 0 0 0 0 0 0 0 0 0 0 0 0 0 0 0 127 0" result="hardAlpha"/>
<feOffset/>
<feGaussianBlur stdDeviation="2"/>
<feComposite in2="hardAlpha" operator="out"/>
<feColorMatrix type="matrix" values="0 0 0 0 0 0 0 0 0 0 0 0 0 0 0 0 0 0 0.25 0"/>
<feBlend mode="normal" in2="BackgroundImageFix" result="effect1_dropShadow"/>
<feBlend mode="normal" in="SourceGraphic" in2="effect1_dropShadow" result="shape"/>
</filter>
</defs>
</svg>
