<?xml version="1.0" encoding="iso-8859-1"?>
<!-- Generator: Adobe Illustrator 19.0.0, SVG Export Plug-In . SVG Version: 6.00 Build 0)  -->
<svg version="1.1" id="Capa_1" xmlns="http://www.w3.org/2000/svg" xmlns:xlink="http://www.w3.org/1999/xlink" x="0px" y="0px"
	 viewBox="0 0 480.003 480.003" style="enable-background:new 0 0 480.003 480.003;" xml:space="preserve">
<g>
	<g>
		<g>
			<rect x="49.489" y="171.865" transform="matrix(0.7282 -0.6854 0.6854 0.7282 -82.5666 151.5358)" width="200.559" height="16"/>
			
				<rect x="109.637" y="231.985" transform="matrix(0.7282 -0.6854 0.6854 0.7282 -107.4221 209.1008)" width="200.559" height="16"/>
			
				<rect x="169.771" y="292.171" transform="matrix(0.7282 -0.6854 0.6854 0.7282 -132.3275 266.6738)" width="200.559" height="16"/>
			
				<rect x="287.846" y="225.658" transform="matrix(-0.6853 -0.7283 0.7283 -0.6853 261.2271 764.7564)" width="16" height="200.56"/>
			<path d="M472.003,0.002H257.187c-2.087-0.007-4.094,0.796-5.6,2.24L2.443,242.834c-3.178,3.069-3.267,8.134-0.198,11.312
				c0.034,0.035,0.068,0.07,0.102,0.104l223.408,223.408c1.5,1.5,3.534,2.344,5.656,2.344h0.072c2.146-0.015,4.195-0.898,5.68-2.448
				L477.755,228.37c1.44-1.49,2.246-3.48,2.248-5.552V8.002C480.003,3.583,476.421,0.002,472.003,0.002z M464.003,219.578
				L231.307,460.586L19.419,248.698l241-232.696h203.584V219.578z"/>
			<path d="M411.851,101.93c18.658,0.004,33.788-15.118,33.792-33.776c0.004-18.658-15.118-33.788-33.776-33.792
				c-18.658-0.004-33.788,15.118-33.792,33.776c0,0.005,0,0.011,0,0.016C378.097,86.798,393.206,101.908,411.851,101.93z
				 M394.075,68.154c0.026-9.803,7.973-17.739,17.776-17.752V50.37c9.822-0.004,17.788,7.954,17.792,17.776
				c0.004,9.822-7.954,17.788-17.776,17.792c-9.822,0.004-17.788-7.954-17.792-17.776C394.075,68.159,394.075,68.156,394.075,68.154
				z"/>
			<rect x="227.85" y="60.144" transform="matrix(0.7071 0.7071 -0.7071 0.7071 118.4801 -149.748)" width="24.304" height="16"/>
			
				<rect x="266.395" y="90.311" transform="matrix(-0.7071 0.7071 -0.7071 -0.7071 540.8738 -19.1093)" width="16" height="24.304"/>
			<rect x="296.594" y="128.922" transform="matrix(0.707 0.7072 -0.7072 0.707 187.286 -178.2273)" width="24.304" height="16"/>
			<rect x="330.965" y="163.264" transform="matrix(0.707 0.7072 -0.7072 0.707 221.6425 -192.4732)" width="24.304" height="16"/>
			<rect x="365.331" y="197.575" transform="matrix(0.7072 0.707 -0.707 0.7072 255.8748 -206.6913)" width="24.296" height="16"/>
			
				<rect x="399.697" y="232.012" transform="matrix(-0.7071 -0.7071 0.7071 -0.7071 533.3567 700.9472)" width="24.304" height="16"/>
			<polygon points="243.115,131.066 97.035,268.538 116.595,288.794 262.667,151.314 			"/>
			<polygon points="303.259,191.21 157.187,328.69 176.747,348.938 322.819,211.466 			"/>
		</g>
	</g>
</g>
<g>
</g>
<g>
</g>
<g>
</g>
<g>
</g>
<g>
</g>
<g>
</g>
<g>
</g>
<g>
</g>
<g>
</g>
<g>
</g>
<g>
</g>
<g>
</g>
<g>
</g>
<g>
</g>
<g>
</g>
</svg>
