<svg width="89" height="155" viewBox="0 0 89 155" fill="none" xmlns="http://www.w3.org/2000/svg">
<path d="M44.4955 0C34.0731 0 25.5969 8.50841 25.5969 18.9842C25.5969 24.5758 28.0297 29.6242 31.8768 33.0979C35.219 36.106 39.6572 37.9546 44.4955 37.9546C49.3339 37.9546 53.7766 36.106 57.1143 33.0979C60.975 29.6242 63.4078 24.5758 63.4078 18.9842C63.4078 8.50841 54.918 0 44.4955 0ZM52.1214 31.9613C49.8887 33.2896 47.283 34.061 44.4955 34.061C41.708 34.061 39.1024 33.2896 36.8697 31.9613C32.4543 29.3412 29.4803 24.4982 29.4803 18.9842C29.4803 10.6629 36.2194 3.91186 44.4955 3.91186C52.7807 3.91186 59.5108 10.6675 59.5108 18.9842C59.5108 24.4936 56.5505 29.3412 52.1214 31.9613Z" fill="#4A5877"/>
<g opacity="0.3">
<g opacity="0.3">
<g opacity="0.3">
<path opacity="0.3" d="M52.1213 31.9613C49.8886 33.2896 47.283 34.061 44.4955 34.061C41.708 34.061 39.1024 33.2896 36.8697 31.9613C35.169 32.2443 33.5046 32.6369 31.8767 33.0979C35.219 36.106 39.6572 37.9546 44.4955 37.9546C49.3338 37.9546 53.7766 36.106 57.1143 33.0979C55.4864 32.6369 53.822 32.2443 52.1213 31.9613Z" fill="#4A5877"/>
</g>
</g>
</g>
<path d="M78.2227 37.7538L74.8714 42.081L73.5026 43.8475L69.0281 40.3374L70.3832 38.5846L73.7482 34.2573L78.2227 37.7538Z" fill="#4A5877"/>
<path opacity="0.3" d="M69.815 39.3195L68.4553 41.0723L72.9299 44.5779L74.2986 42.8114C72.8844 41.5561 71.3838 40.3967 69.815 39.3195Z" fill="#4A5877"/>
<path d="M49.3385 21.166H39.6572V34.3212H49.3385V21.166Z" fill="#4A5877"/>
<path opacity="0.3" d="M39.6572 31.7559V35.2752H49.3385V31.7559C47.7469 31.5916 46.1371 31.5049 44.5001 31.5049C42.854 31.5094 41.2488 31.5916 39.6572 31.7559Z" fill="#4A5877"/>
<path d="M44.5 121.35C19.9627 121.35 0 101.311 0 76.6806C0 52.0501 19.9627 32.0115 44.5 32.0115C69.0373 32.0115 89 52.0501 89 76.6806C89 101.311 69.0373 121.35 44.5 121.35Z" fill="#4A5877"/>
<path opacity="0.3" d="M89 76.6806C89 75.2336 88.9272 73.8049 88.7908 72.3945L67.5048 51.0276L19.1987 99.5127L40.7848 121.181C42.0126 121.281 43.2449 121.35 44.4954 121.35C69.0373 121.35 89 101.311 89 76.6806Z" fill="#4A5877"/>
<path d="M44.6501 110.933C63.4958 110.933 78.7732 95.598 78.7732 76.6807C78.7732 57.7634 63.4958 42.428 44.6501 42.428C25.8045 42.428 10.5271 57.7634 10.5271 76.6807C10.5271 95.598 25.8045 110.933 44.6501 110.933Z" fill="white"/>
<path opacity="0.3" d="M39.6572 27.4104L49.3339 29.9118V21.166H39.6572V27.4104Z" fill="#4A5877"/>
<path d="M49.1063 14.9125H39.8889C36.0964 14.9125 33.0225 17.9981 33.0225 21.805V23.7678C33.0225 25.7762 34.6458 27.4058 36.6467 27.4058H52.3485C54.3493 27.4058 55.9727 25.7762 55.9727 23.7678V21.805C55.9727 17.9981 52.8988 14.9125 49.1063 14.9125Z" fill="#4A5877"/>
<path opacity="0.3" d="M78.2229 37.7538L73.7483 34.2573L71.502 37.1467L74.8806 42.0674L78.2229 37.7538Z" fill="#4A5877"/>
<path d="M80.3602 34.7822L76.0948 31.45C74.3396 30.0761 71.8067 30.3956 70.4425 32.1575L69.7377 33.0659C69.0147 33.9971 69.1829 35.3391 70.1106 36.0603L77.3772 41.7386C78.3048 42.4644 79.6372 42.2955 80.3602 41.3643L81.0651 40.456C82.4338 38.694 82.1155 36.1516 80.3602 34.7822Z" fill="#4A5877"/>
<path d="M44.5 48.2888V76.6806H72.7843C72.7843 61.024 60.0927 48.2888 44.5 48.2888Z" fill="#FF4E4E"/>
<path d="M44.5 105.072C60.0973 105.072 72.7843 92.3372 72.7843 76.6807H44.5V105.072Z" fill="#FF4E4E"/>
<path d="M44.5001 105.072C28.9028 105.072 16.2158 92.3372 16.2158 76.6807H44.5001V105.072Z" fill="#FF4E4E"/>
<path d="M46.6964 48.2889C46.6964 47.0702 45.7142 46.0842 44.5001 46.0842C43.2859 46.0842 42.3037 47.0702 42.3037 48.2889C42.3037 49.5077 43.2859 50.4936 44.5001 50.4936C45.7142 50.4936 46.6964 49.5077 46.6964 48.2889Z" fill="#4A5877"/>
<path d="M46.6964 104.771C46.6964 103.552 45.7142 102.567 44.5001 102.567C43.2859 102.567 42.3037 103.552 42.3037 104.771C42.3037 105.99 43.2859 106.976 44.5001 106.976C45.7142 106.976 46.6964 105.985 46.6964 104.771Z" fill="#4A5877"/>
<path d="M72.6297 78.7347C73.8438 78.7347 74.826 77.7488 74.826 76.53C74.826 75.3113 73.8438 74.3253 72.6297 74.3253C71.4156 74.3253 70.4333 75.3113 70.4333 76.53C70.4333 77.7488 71.4201 78.7347 72.6297 78.7347Z" fill="#4A5877"/>
<path d="M16.3658 78.7347C17.5799 78.7347 18.5621 77.7488 18.5621 76.53C18.5621 75.3113 17.5799 74.3253 16.3658 74.3253C15.1517 74.3253 14.1694 75.3113 14.1694 76.53C14.1694 77.7488 15.1517 78.7347 16.3658 78.7347Z" fill="#4A5877"/>
<path d="M44.3498 73.5311C40.9121 73.5311 22.7683 76.6807 22.7683 76.6807C22.7683 76.6807 41.2122 79.8303 44.3498 79.8303C46.0824 79.8303 47.4875 78.4198 47.4875 76.6807C47.4875 74.9416 46.0824 73.5311 44.3498 73.5311Z" fill="#4A5877"/>
<path d="M46.2279 76.5301C46.2279 75.5715 45.4549 74.7955 44.5 74.7955C43.545 74.7955 42.772 75.5715 42.772 76.5301C42.772 77.4886 43.545 78.2646 44.5 78.2646C45.4549 78.2646 46.2279 77.4886 46.2279 76.5301Z" fill="white"/>
<path opacity="0.5" d="M79.9281 35.4897L75.5172 32.0435C75.1853 31.7833 74.7078 31.8426 74.4486 32.1758C74.1894 32.5091 74.2485 32.9883 74.5805 33.2485L78.9914 36.6948C79.3233 36.955 79.8008 36.8956 80.06 36.5624C80.3192 36.2292 80.2601 35.7499 79.9281 35.4897Z" fill="#4A5877"/>
<path opacity="0.5" d="M50.739 15.8802H38.2612C37.7837 15.8802 37.3972 16.2682 37.3972 16.7475C37.3972 17.2268 37.7837 17.6148 38.2612 17.6148H50.739C51.2165 17.6148 51.603 17.2268 51.603 16.7475C51.603 16.2682 51.2165 15.8802 50.739 15.8802Z" fill="#4A5877"/>
</svg>
