<svg width="84" height="97" xmlns="http://www.w3.org/2000/svg">
    <path d="M42.007 0C28.601 0 17.643 11.327 17.643 25.185c0 13.857 10.958 25.184 24.364 25.184 13.407 0 24.365-11.327 24.365-25.184C66.372 11.327 55.414 0 42.007 0zM83.82 70.496c-.639-1.65-1.488-3.19-2.447-4.619-4.894-7.479-12.45-12.428-20.96-13.636-1.063-.11-2.234.11-3.085.77-4.469 3.41-9.79 5.17-15.321 5.17-5.531 0-10.853-1.76-15.32-5.168-.852-.659-2.023-.99-3.086-.77-8.513 1.21-16.172 6.16-20.96 13.636-.957 1.43-1.808 3.08-2.448 4.619-.32.66-.214 1.429.106 2.09.851 1.539 1.915 3.08 2.874 4.4a41.34 41.34 0 004.893 5.719c1.49 1.539 3.192 2.97 4.894 4.4 8.405 6.49 18.514 9.897 28.941 9.897s20.534-3.41 28.94-9.898a47.012 47.012 0 004.895-4.4c1.702-1.759 3.405-3.628 4.893-5.719 1.063-1.429 2.023-2.858 2.874-4.399.531-.663.637-1.433.318-2.092z"/>
</svg>