<svg width="34" height="19" viewBox="0 0 34 19" fill="none" xmlns="http://www.w3.org/2000/svg">
<g opacity="0.8">
<path d="M0.722271 9.57964C0.697947 9.55174 0.674914 9.52518 0.653186 9.5C0.674914 9.47482 0.697947 9.44826 0.722271 9.42036C0.94375 9.1663 1.27198 8.80155 1.69558 8.36299C2.54332 7.48532 3.77008 6.3151 5.28473 5.14578C8.32616 2.79777 12.468 0.5 17 0.5C21.532 0.5 25.6738 2.79777 28.7153 5.14578C30.2299 6.3151 31.4567 7.48532 32.3044 8.36299C32.728 8.80155 33.0563 9.1663 33.2777 9.42036C33.3021 9.44826 33.3251 9.47482 33.3468 9.5C33.3251 9.52518 33.3021 9.55174 33.2777 9.57964C33.0563 9.8337 32.728 10.1985 32.3044 10.637C31.4567 11.5147 30.2299 12.6849 28.7153 13.8542C25.6738 16.2022 21.532 18.5 17 18.5C12.468 18.5 8.32616 16.2022 5.28473 13.8542C3.77008 12.6849 2.54332 11.5147 1.69558 10.637C1.27198 10.1985 0.94375 9.8337 0.722271 9.57964Z" stroke="#9B9B9B"/>
<ellipse cx="17" cy="9.5" rx="5.17391" ry="5.11538" fill="#462AC5"/>
</g>
</svg>
