<svg width="27" height="17" viewBox="0 0 27 17" fill="none" xmlns="http://www.w3.org/2000/svg">
<g clip-path="url(#clip0)">
<path d="M24.8009 -0.000739359H2.19907C1.63102 -0.0153543 1.08028 0.191345 0.667913 0.573924C0.255549 0.956503 0.0153084 1.48365 0 2.03949H0V14.9619C0.0160692 15.5172 0.256642 16.0436 0.668922 16.4256C1.0812 16.8076 1.63151 17.0139 2.19907 16.9993H24.8009C25.3685 17.0139 25.9188 16.8076 26.3311 16.4256C26.7434 16.0436 26.9839 15.5172 27 14.9619V2.03949C26.9847 1.48365 26.7445 0.956503 26.3321 0.573924C25.9197 0.191345 25.369 -0.0153543 24.8009 -0.000739359ZM1.13463 3.92234H25.8566V6.40323H1.13463V3.92234ZM2.19907 1.06087H24.8009C25.0766 1.05394 25.3438 1.1543 25.5439 1.33991C25.744 1.52553 25.8606 1.78124 25.8683 2.05094V2.86073H1.13463V2.03949C1.13804 1.90608 1.16828 1.77463 1.22363 1.65266C1.27898 1.53069 1.35835 1.42058 1.4572 1.32864C1.55605 1.23669 1.67245 1.16471 1.79974 1.1168C1.92704 1.06889 2.06273 1.046 2.19907 1.04942V1.06087ZM24.8009 15.9491H2.19907C1.92421 15.956 1.65777 15.856 1.45821 15.6709C1.25865 15.4858 1.14228 15.2308 1.13463 14.9619V7.45339H25.8566V14.9504C25.8543 15.0839 25.8252 15.2155 25.7709 15.3379C25.7166 15.4603 25.6382 15.571 25.5402 15.6638C25.4421 15.7565 25.3264 15.8294 25.1996 15.8784C25.0727 15.9273 24.9373 15.9514 24.8009 15.9491Z" fill="#2A4CC5"/>
<path d="M22.0255 10.3013C21.7198 10.2999 21.417 10.3599 21.1358 10.4775C20.8546 10.5951 20.6011 10.7679 20.3909 10.9852C19.992 10.5777 19.4503 10.3332 18.8746 10.3008C18.299 10.2685 17.7321 10.4506 17.2882 10.8106C17.0734 10.9815 16.897 11.1939 16.7701 11.4346C16.6431 11.6753 16.5684 11.939 16.5506 12.2093C16.5327 12.4796 16.5721 12.7506 16.6664 13.0053C16.7606 13.2599 16.9076 13.4928 17.0981 13.6893C17.4975 14.0969 18.0397 14.3415 18.6158 14.3739C19.192 14.4063 19.7593 14.224 20.2037 13.8638C20.2742 13.8063 20.3406 13.7441 20.4026 13.6778C20.8032 14.0799 21.3444 14.319 21.9176 14.3472C22.4909 14.3753 23.0538 14.1904 23.4935 13.8295C23.7053 13.6578 23.8785 13.4453 24.0024 13.2051C24.1263 12.9649 24.1982 12.7023 24.2136 12.4337C24.2289 12.1651 24.1875 11.8963 24.0917 11.6441C23.996 11.3919 23.8481 11.1617 23.6573 10.968C23.4482 10.754 23.1966 10.5841 22.9181 10.4684C22.6395 10.3528 22.3398 10.294 22.0372 10.2956L22.0255 10.3013ZM18.7708 13.3116C18.5734 13.3009 18.3835 13.234 18.2246 13.1189C18.0657 13.0039 17.9447 12.8458 17.8766 12.6642C17.8084 12.4826 17.7961 12.2855 17.8412 12.0971C17.8863 11.9088 17.9868 11.7375 18.1303 11.6044C18.2738 11.4714 18.4539 11.3823 18.6485 11.3483C18.8431 11.3143 19.0437 11.3368 19.2253 11.4131C19.407 11.4894 19.5619 11.6161 19.6708 11.7775C19.7797 11.9389 19.8379 12.128 19.8382 12.3215C19.8348 12.4551 19.8044 12.5868 19.7489 12.709C19.6934 12.8312 19.6137 12.9414 19.5146 13.0334C19.4154 13.1254 19.2987 13.1973 19.171 13.245C19.0434 13.2927 18.9074 13.3154 18.7708 13.3116ZM22.0255 13.3116C21.8287 13.2993 21.6397 13.2309 21.482 13.115C21.3243 12.999 21.2047 12.8404 21.1379 12.6588C21.0711 12.4771 21.06 12.2803 21.106 12.0926C21.152 11.9049 21.2531 11.7344 21.3968 11.6022C21.5405 11.4699 21.7206 11.3817 21.915 11.3483C22.1093 11.315 22.3093 11.3379 22.4905 11.4143C22.6717 11.4908 22.826 11.6174 22.9346 11.7785C23.0432 11.9397 23.1013 12.1284 23.1017 12.3215C23.094 12.5907 22.9778 12.8459 22.7783 13.0315C22.5788 13.217 22.3124 13.3177 22.0372 13.3116H22.0255Z" fill="#2A4CC5"/>
</g>
<defs>
<clipPath id="clip0">
<rect width="27" height="17" fill="white"/>
</clipPath>
</defs>
</svg>
