<svg width="16" height="16"  xmlns="http://www.w3.org/2000/svg">
    <path d="M15.771 14.845l-4.438-4.48A6.36 6.36 0 006.363.038 6.363 6.363 0 000 6.4a6.36 6.36 0 006.363 6.358 6.34 6.34 0 004.01-1.42l4.41 4.45a.68.68 0 00.963.025.687.687 0 00.025-.968zM6.363 11.39c-1.334 0-2.59-.52-3.533-1.463A4.961 4.961 0 011.367 6.4c0-1.334.52-2.59 1.463-3.528a4.964 4.964 0 013.533-1.463c1.334 0 2.589.52 3.532 1.463A4.961 4.961 0 0111.358 6.4c0 1.334-.52 2.589-1.463 3.528a4.964 4.964 0 01-3.532 1.463z" />
</svg>