<svg width="17" height="15" viewBox="0 0 17 15" xmlns="http://www.w3.org/2000/svg">
	<path d="M16.4688 2.00078H9.5625V0.500842C9.5625 0.351786 9.49244 0.210854 9.37025 0.115858C9.24906 0.0208621 9.0867 -0.0200737 8.93363 0.00992505L0.433633 1.50986C0.181621 1.55392 0 1.75985 0 2.00078V13.0003C0 13.2403 0.181621 13.4472 0.433633 13.4912L8.93363 14.9912C8.96551 14.9971 8.99838 15.0002 9.03125 15.0002C9.15443 15.0002 9.27463 14.9602 9.37025 14.8852C9.49244 14.7902 9.5625 14.6484 9.5625 14.5003V13.0003H16.4688C16.7619 13.0003 17 12.7763 17 12.5003V2.50076C17 2.22483 16.7619 2.00078 16.4688 2.00078ZM7.30568 9.17142C7.49893 9.37829 7.47668 9.69452 7.25588 9.87639C7.15494 9.95951 7.03076 10.0004 6.90625 10.0004C6.7585 10.0004 6.61207 9.94232 6.50682 9.82952L4.96187 8.16865L3.60719 9.80858C3.50193 9.93451 3.34488 10.0004 3.1875 10.0004C3.07395 10.0004 2.95906 9.96639 2.86145 9.89545C2.62969 9.72546 2.58852 9.41141 2.76781 9.19361L4.249 7.40181L2.78807 5.83C2.59482 5.62313 2.61707 5.30689 2.83787 5.12502C3.05768 4.94316 3.39236 4.96316 3.58793 5.1719L4.91406 6.59778L6.48756 4.69379C6.66818 4.47693 7.00188 4.43693 7.2333 4.60692C7.46506 4.77598 7.50623 5.09003 7.32561 5.30877L5.62561 7.36462L7.30568 9.17142ZM15.9375 12.0004H9.5625V11.0004H11.1562C11.4494 11.0004 11.6875 10.7764 11.6875 10.5004C11.6875 10.2245 11.4494 10.0004 11.1562 10.0004H9.5625V9.00049H11.1562C11.4494 9.00049 11.6875 8.77644 11.6875 8.50051C11.6875 8.22458 11.4494 8.00053 11.1562 8.00053H9.5625V7.00057H11.1562C11.4494 7.00057 11.6875 6.77652 11.6875 6.50059C11.6875 6.22467 11.4494 6.00061 11.1562 6.00061H9.5625V5.00066H11.1562C11.4494 5.00066 11.6875 4.7766 11.6875 4.50068C11.6875 4.22475 11.4494 4.0007 11.1562 4.0007H9.5625V3.00074H15.9375V12.0004Z" />
</svg>