<svg height="512" width="512" xmlns="http://www.w3.org/2000/svg">
    <path d="M420.417 429.815V317c0-41.355-33.645-75-75-75H316c-8.271 0-15-6.729-15-15 18.695-14.063 30-36.323 30-60-.005-14.721 0 4.772 0-92 0-41.355-33.645-75-75-75s-75 33.645-75 75v92c0 23.677 11.305 45.938 30 60 0 8.271-6.729 15-15 15h-29.417c-41.355 0-75 33.645-75 75v112.814A45.33 45.33 0 0091 437v30c0 24.813 20.187 45 45 45h240c24.813 0 45-20.187 45-45v-30c0-2.407-.202-4.815-.583-7.185zM278.489 205.989A15 15 0 00271 218.973V227c0 11.511 4.349 22.021 11.484 29.987L256 270.229l-26.484-13.242C236.651 249.021 241 238.511 241 227v-8.027a15 15 0 00-7.489-12.984C219.625 197.957 211 183.017 211 167v-32.041C223.544 144.397 239.129 150 256 150s32.456-5.603 45-15.041V167c0 16.017-8.625 30.957-22.511 38.989zM213.58 90h84.839c-6.192 17.459-22.865 30-42.42 30s-36.227-12.541-42.419-30zM256 30c19.555 0 36.228 12.541 42.42 30h-84.84c6.192-17.459 22.865-30 42.42-30zm-89.417 242h25.876l56.833 28.417a15.002 15.002 0 0013.416 0L319.541 272h25.876c24.813 0 45 20.187 45 45v77.394A44.701 44.701 0 00376 392h-15v-45c0-8.284-6.716-15-15-15H166c-8.284 0-15 6.716-15 15v45h-15c-5.012 0-9.864.845-14.417 2.394V317c0-24.813 20.187-45 45-45zM181 362h30v45c0 8.284 6.716 15 15 15h60c8.284 0 15-6.716 15-15v-45h30v120H181zm90 0v30h-30v-30zM121 467v-30c0-8.409 6.846-15 15-15h15v60h-15c-8.271 0-15-6.729-15-15zm270 0c0 8.271-6.729 15-15 15h-15v-60h15c8.141 0 15 6.576 15 15z"/>
</svg>