<svg width="40" height="40" viewBox="0 0 40 40" fill="none" xmlns="http://www.w3.org/2000/svg">
<g clip-path="url(#clip0)">
<path d="M19.5521 39.624C9.00806 39.624 0.456055 30.848 0.456055 20C0.456055 9.15199 9.00806 0.423996 19.5521 0.423996C29.7841 0.423996 38.1361 8.67999 38.6321 19.048" stroke="white" stroke-width="1.07" stroke-miterlimit="10" stroke-linecap="round"/>
<path d="M37.072 17.416L38.592 18.8L39.968 17.272L40.032 18.504L38.656 20.024L37.136 18.648L37.072 17.416Z" fill="white"/>
<path d="M23.2947 22.8738C23.2947 22.2984 23.0914 21.8137 22.6849 21.4197C22.2846 21.0256 21.606 20.6691 20.649 20.3502C19.3168 19.9436 18.3443 19.4151 17.7313 18.7646C17.1246 18.1079 16.8213 17.2761 16.8213 16.2691C16.8213 15.2434 17.1184 14.4021 17.7125 13.7454C18.313 13.0887 19.1354 12.6978 20.1799 12.5727V10.5181H21.5778V12.5821C22.6286 12.7259 23.4448 13.1669 24.0265 13.9049C24.6144 14.6429 24.9083 15.653 24.9083 16.9352H23.1821C23.1821 16.0533 22.9726 15.3528 22.5535 14.8337C22.1345 14.3146 21.5684 14.055 20.8554 14.055C20.1111 14.055 19.542 14.2489 19.148 14.6367C18.7539 15.0182 18.5569 15.553 18.5569 16.241C18.5569 16.8789 18.7633 17.3887 19.1761 17.7702C19.5952 18.1455 20.28 18.4894 21.2307 18.8022C22.1876 19.1086 22.9319 19.4495 23.4636 19.8248C24.0014 20.1938 24.3955 20.6254 24.6457 21.1195C24.9021 21.6136 25.0303 22.1921 25.0303 22.8551C25.0303 23.9121 24.7113 24.7627 24.0734 25.4069C23.4417 26.0511 22.5535 26.4327 21.409 26.5515V28.3434H20.0205V26.5515C18.8571 26.4452 17.944 26.0324 17.281 25.3131C16.6243 24.5876 16.2959 23.6056 16.2959 22.3672H18.0315C18.0315 23.2366 18.2598 23.9058 18.7164 24.3749C19.173 24.844 19.8203 25.0786 20.6584 25.0786C21.4778 25.0786 22.122 24.8815 22.5911 24.4875C23.0601 24.0935 23.2947 23.5556 23.2947 22.8738Z" fill="white"/>
</g>
<defs>
<clipPath id="clip0">
<rect width="40" height="40" fill="white"/>
</clipPath>
</defs>
</svg>
