<svg width="13" height="13" xmlns="http://www.w3.org/2000/svg">
    <path d="M6.5 0A6.507 6.507 0 000 6.5C0 10.084 2.916 13 6.5 13S13 10.084 13 6.5 10.084 0 6.5 0zm3.091 9.862a.54.54 0 01-.765 0L6.117 7.154a.54.54 0 01-.159-.383V3.25a.541.541 0 111.084 0v3.297l2.55 2.55a.541.541 0 010 .765z" />
    <path d="M6.5 0A6.507 6.507 0 000 6.5C0 10.084 2.916 13 6.5 13S13 10.084 13 6.5 10.084 0 6.5 0zm3.091 9.862a.54.54 0 01-.765 0L6.117 7.154a.54.54 0 01-.159-.383V3.25a.541.541 0 111.084 0v3.297l2.55 2.55a.541.541 0 010 .765z" />
</svg>