<svg width="40" height="40" viewBox="0 0 40 40" fill="none" xmlns="http://www.w3.org/2000/svg">
<g clip-path="url(#clip0)">
<path d="M15.568 0.799344C15.8454 0.77466 16.1213 0.859686 16.3367 1.03617C16.5521 1.21266 16.6897 1.46655 16.72 1.74334V8.94334C16.6897 9.22014 16.5521 9.47403 16.3367 9.65051C16.1213 9.827 15.8454 9.91203 15.568 9.88734H1.968C1.68722 9.91423 1.40716 9.82938 1.18852 9.65118C0.969883 9.47297 0.830289 9.21578 0.8 8.93534V1.73534C0.834164 1.45933 0.974261 1.2074 1.19071 1.03275C1.40715 0.8581 1.683 0.774407 1.96 0.799344H15.56H15.568ZM15.56 -0.000655898H1.96C1.4694 -0.0269334 0.988263 0.141542 0.621224 0.468132C0.254184 0.794723 0.0309258 1.25301 0 1.74334L0 8.94334C0.0288652 9.43444 0.251521 9.89399 0.619041 10.221C0.98656 10.548 1.46888 10.7158 1.96 10.6873H15.56C16.0498 10.7136 16.53 10.5448 16.8958 10.2181C17.2616 9.89127 17.4831 9.43298 17.512 8.94334V1.74334C17.4831 1.25517 17.2627 0.798134 16.8986 0.471569C16.5346 0.145004 16.0564 -0.0246985 15.568 -0.000655898H15.56Z" fill="white"/>
<path d="M15.568 15.2C15.8454 15.1753 16.1213 15.2603 16.3367 15.4368C16.5521 15.6133 16.6897 15.8672 16.72 16.144V23.344C16.6878 23.6193 16.5493 23.8712 16.3342 24.0461C16.119 24.2209 15.8441 24.3048 15.568 24.28H1.968C1.69295 24.3096 1.41717 24.231 1.19913 24.0608C0.981088 23.8905 0.837926 23.642 0.8 23.368V16.168C0.8264 15.8862 0.963177 15.6263 1.18049 15.4449C1.39781 15.2636 1.67802 15.1755 1.96 15.2H15.56H15.568ZM15.56 14.4H1.96C1.71514 14.3871 1.47014 14.4226 1.23902 14.5045C1.0079 14.5864 0.795219 14.7131 0.613148 14.8773C0.431077 15.0415 0.283199 15.2401 0.177984 15.4616C0.07277 15.683 0.0122868 15.9231 0 16.168L0 23.368C0.0308963 23.8577 0.254431 24.3152 0.621723 24.6405C0.989016 24.9658 1.47018 25.1325 1.96 25.104H15.56C16.049 25.1324 16.5293 24.9655 16.8953 24.64C17.2613 24.3145 17.4831 23.857 17.512 23.368V16.168C17.5007 15.9242 17.4414 15.685 17.3376 15.4641C17.2337 15.2432 17.0873 15.045 16.9067 14.8807C16.7262 14.7165 16.515 14.5895 16.2853 14.507C16.0555 14.4245 15.8118 14.3882 15.568 14.4H15.56Z" fill="white"/>
<path d="M15.568 30.12C15.8454 30.0953 16.1213 30.1803 16.3367 30.3568C16.5521 30.5333 16.6897 30.7872 16.72 31.064V38.264C16.6878 38.5393 16.5493 38.7912 16.3342 38.9661C16.119 39.1409 15.8441 39.2248 15.568 39.2H1.968C1.68846 39.227 1.40949 39.1432 1.19107 38.9667C0.972654 38.7902 0.832231 38.535 0.8 38.256V31.056C0.83225 30.7785 0.971531 30.5246 1.18819 30.3483C1.40485 30.172 1.68177 30.0872 1.96 30.112H15.56L15.568 30.12ZM15.56 29.312H1.96C1.71618 29.298 1.47199 29.3322 1.24141 29.4127C1.01084 29.4932 0.798426 29.6184 0.616343 29.7812C0.43426 29.9439 0.286089 30.141 0.180324 30.3612C0.0745597 30.5813 0.0132807 30.8201 0 31.064L0 38.264C0.0329401 38.7529 0.25707 39.2092 0.623886 39.5341C0.990702 39.859 1.4707 40.0263 1.96 40H15.56C16.0498 40.0262 16.53 39.8575 16.8958 39.5307C17.2616 39.2039 17.4831 38.7456 17.512 38.256V31.056C17.4831 30.5664 17.2616 30.1081 16.8958 29.7813C16.53 29.4545 16.0498 29.2858 15.56 29.312Z" fill="white"/>
<path d="M38.04 0.799311C38.3182 0.774513 38.5951 0.859296 38.8118 1.03561C39.0284 1.21193 39.1677 1.46584 39.2 1.74331V8.94331C39.1677 9.22078 39.0284 9.4747 38.8118 9.65101C38.5951 9.82733 38.3182 9.91211 38.04 9.88731H24.44C24.1626 9.91199 23.8866 9.82697 23.6713 9.65048C23.4559 9.47399 23.3183 9.22011 23.288 8.94331V1.74331C23.3183 1.46802 23.4548 1.2154 23.6684 1.03913C23.882 0.862854 24.1559 0.776822 24.432 0.799311H38.032H38.04ZM38.032 -0.000689018H24.432C23.9422 -0.0269109 23.4619 0.141809 23.0962 0.468599C22.7304 0.795389 22.5089 1.25368 22.48 1.74331V8.94331C22.5089 9.43295 22.7304 9.89123 23.0962 10.218C23.4619 10.5448 23.9422 10.7135 24.432 10.6873H38.032C38.2764 10.7025 38.5215 10.6691 38.753 10.589C38.9845 10.509 39.1979 10.384 39.3808 10.2211C39.5637 10.0583 39.7126 9.86079 39.8189 9.64011C39.9252 9.41942 39.9867 9.17989 40 8.93531V1.73531C39.967 1.24641 39.7429 0.790141 39.3761 0.465247C39.0093 0.140353 38.5293 -0.027034 38.04 -0.000689018H38.032Z" fill="white"/>
<path d="M38.04 15.2C38.322 15.1755 38.6022 15.2636 38.8195 15.4449C39.0368 15.6263 39.1736 15.8862 39.2 16.168V23.368C39.1678 23.6449 39.0282 23.898 38.8113 24.0731C38.5943 24.2481 38.3174 24.331 38.04 24.304H24.44C24.1639 24.3288 23.889 24.2449 23.6738 24.07C23.4587 23.8952 23.3202 23.6433 23.288 23.368V16.168C23.3124 15.8884 23.4464 15.6297 23.6607 15.4484C23.8749 15.2671 24.1522 15.1778 24.432 15.2H38.032H38.04ZM38.032 14.4H24.432C23.9422 14.3738 23.4619 14.5425 23.0962 14.8693C22.7304 15.1961 22.5089 15.6544 22.48 16.144V23.344C22.5088 23.833 22.7307 24.2905 23.0967 24.616C23.4627 24.9415 23.943 25.1084 24.432 25.08H38.032C38.5193 25.1109 38.9991 24.9485 39.3674 24.628C39.7358 24.3076 39.9631 23.8548 40 23.368V16.168C39.9877 15.9231 39.9272 15.683 39.822 15.4616C39.7168 15.2401 39.5689 15.0415 39.3868 14.8773C39.2048 14.7131 38.9921 14.5864 38.761 14.5045C38.5298 14.4226 38.2848 14.3871 38.04 14.4H38.032Z" fill="white"/>
<path d="M38.04 30.12C38.3183 30.0952 38.5952 30.18 38.8118 30.3563C39.0285 30.5326 39.1678 30.7865 39.2 31.064V38.264C39.1659 38.54 39.0258 38.7919 38.8093 38.9666C38.5929 39.1412 38.317 39.2249 38.04 39.2H24.44C24.1627 39.2247 23.8867 39.1397 23.6713 38.9632C23.456 38.7867 23.3183 38.5328 23.288 38.256V31.056C23.3183 30.7792 23.456 30.5253 23.6713 30.3488C23.8867 30.1723 24.1627 30.0873 24.44 30.112H38.04V30.12ZM38.04 29.312H24.44C23.9503 29.2858 23.47 29.4545 23.1042 29.7813C22.7385 30.1081 22.5169 30.5664 22.488 31.056V38.256C22.517 38.7442 22.7374 39.2012 23.1014 39.5278C23.4654 39.8543 23.9436 40.024 24.432 40H38.032C38.524 40.0285 39.0072 39.861 39.376 39.5342C39.7448 39.2073 39.9691 38.7478 40 38.256V31.056C39.9712 30.5649 39.7485 30.1054 39.381 29.7783C39.0135 29.4513 38.5312 29.2836 38.04 29.312Z" fill="white"/>
</g>
<defs>
<clipPath id="clip0">
<rect width="40" height="40" fill="white"/>
</clipPath>
</defs>
</svg>
