<svg width="40" height="40" viewBox="0 0 40 40" fill="none" xmlns="http://www.w3.org/2000/svg">
<g clip-path="url(#clip0)">
<path d="M37.8879 15.696C38.1036 15.6958 38.317 15.7392 38.5154 15.8236C38.7138 15.908 38.8931 16.0316 39.0426 16.187C39.192 16.3425 39.3085 16.5265 39.385 16.728C39.4616 16.9296 39.4966 17.1446 39.4879 17.36V38.16C39.4966 38.3754 39.4616 38.5904 39.385 38.792C39.3085 38.9935 39.192 39.1776 39.0426 39.333C38.8931 39.4884 38.7138 39.612 38.5154 39.6964C38.317 39.7808 38.1036 39.8242 37.8879 39.824H1.95995C1.52846 39.8115 1.11912 39.6301 0.819931 39.3189C0.520737 39.0078 0.355575 38.5917 0.359948 38.16V17.36C0.355575 16.9284 0.520737 16.5122 0.819931 16.2011C1.11912 15.8899 1.52846 15.7086 1.95995 15.696" stroke="white" stroke-linecap="round" stroke-linejoin="round"/>
<path d="M39.1439 37.896L19.9599 24.936L0.783936 37.896" stroke="white" stroke-width="0.88" stroke-linecap="round" stroke-linejoin="round"/>
<path d="M0.52002 23.736L14.056 28.632" stroke="white" stroke-width="0.99" stroke-linecap="round" stroke-linejoin="round"/>
<path d="M25.72 28.632L39.256 23.736" stroke="white" stroke-width="0.99" stroke-linecap="round" stroke-linejoin="round"/>
<path d="M37.4561 24.352V0.463989H2.35205V24.352" stroke="white" stroke-width="1.01" stroke-linecap="round" stroke-linejoin="round"/>
<path d="M27.3527 15.9646C27.2891 17.2486 26.9707 18.2621 26.3977 19.0049C25.8246 19.7478 25.0579 20.1192 24.0975 20.1192C23.1053 20.1192 22.4686 19.6735 22.1874 18.7821C21.9008 19.2331 21.5719 19.57 21.2004 19.7929C20.8343 20.0104 20.4549 20.1192 20.0623 20.1192C19.3089 20.1192 18.7385 19.8114 18.3511 19.1959C17.9638 18.5804 17.8205 17.7288 17.9213 16.6411C18.0009 15.7656 18.1999 14.9856 18.5183 14.3012C18.8419 13.6114 19.2558 13.0702 19.7599 12.6775C20.2692 12.2849 20.8025 12.0886 21.3596 12.0886C21.7894 12.0886 22.1741 12.1469 22.5137 12.2637C22.8533 12.3751 23.2353 12.5979 23.6598 12.9322L23.2459 17.3415C23.1451 18.5672 23.4847 19.18 24.2646 19.18C24.8642 19.18 25.3497 18.8829 25.7211 18.2886C26.0926 17.6943 26.2942 16.9197 26.326 15.9646C26.4268 13.9006 26.0422 12.3273 25.172 11.2449C24.3071 10.1625 22.9886 9.62127 21.2164 9.62127C20.1499 9.62127 19.2027 9.88657 18.375 10.4172C17.5473 10.9425 16.8946 11.7039 16.4171 12.7014C15.9396 13.6989 15.6716 14.8503 15.6132 16.1556C15.5496 17.4715 15.7087 18.6149 16.0908 19.5859C16.4728 20.5516 17.0538 21.2891 17.8338 21.7985C18.6191 22.3132 19.5662 22.5705 20.6751 22.5705C21.1527 22.5705 21.6302 22.5122 22.1078 22.3954C22.5906 22.2787 22.9912 22.1275 23.3096 21.9418L23.6041 22.8571C23.2751 23.064 22.8373 23.2338 22.2908 23.3664C21.7496 23.4991 21.2004 23.5654 20.6433 23.5654C19.3168 23.5654 18.176 23.2656 17.2209 22.666C16.2659 22.0718 15.5496 21.2122 15.072 20.0873C14.5998 18.9678 14.3955 17.6572 14.4592 16.1556C14.5229 14.6965 14.8492 13.3859 15.4381 12.2239C16.0271 11.0565 16.8257 10.1572 17.8338 9.52576C18.8419 8.88904 19.9801 8.57069 21.2482 8.57069C22.5694 8.57069 23.7022 8.86782 24.6467 9.46209C25.5911 10.0564 26.2942 10.9133 26.7558 12.0328C27.2174 13.1524 27.4164 14.463 27.3527 15.9646ZM19.1868 16.6411C19.1125 17.3945 19.1815 17.9729 19.3937 18.3762C19.6113 18.7794 19.9535 18.981 20.4205 18.981C20.7388 18.981 21.0439 18.8457 21.3357 18.5751C21.6329 18.3045 21.877 17.9172 22.068 17.4131L22.0759 17.3415L22.442 13.3381C22.1449 13.1842 21.8265 13.1073 21.487 13.1073C20.8662 13.1073 20.3515 13.423 19.9429 14.0544C19.5397 14.6858 19.2876 15.5481 19.1868 16.6411Z" fill="white"/>
<path d="M7.43188 5.24799H32.3759" stroke="white" stroke-width="0.75"/>
<path d="M25.384 14.328H32.376" stroke="white" stroke-width="0.75"/>
<path d="M7.43188 14.328H14.4239" stroke="white" stroke-width="0.75"/>
<path d="M7.43188 23.4H32.3759" stroke="white" stroke-width="0.75"/>
</g>
<defs>
<clipPath id="clip0">
<rect width="40" height="40" fill="white"/>
</clipPath>
</defs>
</svg>
