<svg width="40" height="40" viewBox="0 0 40 40" fill="none" xmlns="http://www.w3.org/2000/svg">
<g clip-path="url(#clip0)">
<path d="M35.72 4.304V35.816C35.7127 36.3277 35.6046 36.8328 35.4021 37.3027C35.1995 37.7726 34.9063 38.198 34.5394 38.5546C34.1724 38.9112 33.7387 39.192 33.2632 39.381C32.7877 39.57 32.2796 39.6634 31.7679 39.656H7.60795C6.57388 39.671 5.57612 39.275 4.83368 38.5551C4.09124 37.8352 3.66479 36.85 3.64795 35.816V34.656H6.35195C6.80467 34.6543 7.23963 34.4797 7.56795 34.168C7.72731 34.0131 7.85402 33.8277 7.94058 33.623C8.02715 33.4183 8.07181 33.1983 8.07195 32.976C8.06882 32.7533 8.02185 32.5333 7.93371 32.3288C7.84557 32.1242 7.718 31.939 7.55828 31.7837C7.39856 31.6285 7.20982 31.5062 7.00283 31.4239C6.79585 31.3416 6.57468 31.3008 6.35195 31.304H3.64795V26.192H6.35195C6.80547 26.1944 7.24192 26.0193 7.56795 25.704C7.72671 25.5503 7.8531 25.3663 7.93966 25.163C8.02621 24.9596 8.0712 24.741 8.07195 24.52C8.06986 24.2966 8.02366 24.0758 7.93599 23.8703C7.84832 23.6648 7.72091 23.4787 7.56109 23.3226C7.40126 23.1664 7.21216 23.0435 7.00466 22.9606C6.79716 22.8778 6.57534 22.8368 6.35195 22.84H3.64795V17.408H6.35195C6.80547 17.4104 7.24192 17.2353 7.56795 16.92C7.72744 16.7668 7.85431 16.583 7.94093 16.3795C8.02754 16.176 8.07211 15.9571 8.07195 15.736C8.06986 15.5126 8.02366 15.2918 7.93599 15.0863C7.84832 14.8808 7.72091 14.6947 7.56109 14.5386C7.40126 14.3824 7.21216 14.2595 7.00466 14.1766C6.79716 14.0938 6.57534 14.0528 6.35195 14.056H3.64795V9.056H6.35195C6.80643 9.05543 7.24273 8.87746 7.56795 8.56C7.72934 8.40829 7.85747 8.22471 7.94422 8.0209C8.03098 7.8171 8.07447 7.59749 8.07195 7.376C8.06882 7.15328 8.02185 6.93335 7.93371 6.72877C7.84557 6.5242 7.718 6.33899 7.55828 6.18373C7.39856 6.02847 7.20982 5.90619 7.00283 5.82387C6.79585 5.74156 6.57468 5.70083 6.35195 5.704H3.64795V4.304C3.65626 3.78819 3.7665 3.27912 3.97234 2.80608C4.17818 2.33305 4.47555 1.9054 4.84732 1.54775C5.2191 1.1901 5.65794 0.90952 6.13859 0.722152C6.61924 0.534784 7.1322 0.444332 7.64795 0.456003H31.8079C32.8351 0.453793 33.8218 0.856478 34.554 1.57678C35.2863 2.29708 35.7052 3.27695 35.72 4.304V4.304Z" stroke="white" stroke-width="0.98" stroke-miterlimit="10"/>
<path d="M8.07196 7.37601C8.07448 7.5975 8.03099 7.8171 7.94423 8.02091C7.85748 8.22472 7.72935 8.40829 7.56796 8.56001C7.24274 8.87747 6.80644 9.05543 6.35196 9.05601H2.13596C1.91218 9.05918 1.68997 9.01824 1.48201 8.93553C1.27406 8.85281 1.08444 8.72994 0.923971 8.57394C0.763507 8.41793 0.635346 8.23184 0.546808 8.0263C0.45827 7.82076 0.411089 7.59979 0.407959 7.37601C0.407803 7.15487 0.452371 6.93598 0.538984 6.73251C0.625596 6.52904 0.752465 6.34519 0.911959 6.19201C1.24044 5.87553 1.67984 5.70035 2.13596 5.70401H6.35196C6.57469 5.70083 6.79586 5.74156 7.00284 5.82388C7.20983 5.90619 7.39857 6.02847 7.55829 6.18373C7.71801 6.339 7.84558 6.5242 7.93372 6.72878C8.02186 6.93335 8.06883 7.15328 8.07196 7.37601V7.37601Z" stroke="white" stroke-width="0.98" stroke-miterlimit="10"/>
<path d="M8.07206 15.736C8.07222 15.9571 8.02765 16.176 7.94104 16.3795C7.85443 16.583 7.72756 16.7668 7.56806 16.92C7.24203 17.2353 6.80558 17.4104 6.35206 17.408H2.13606C1.91267 17.4122 1.69064 17.3723 1.48273 17.2905C1.27482 17.2086 1.08513 17.0865 0.924557 16.9311C0.763984 16.7758 0.635694 16.5902 0.547057 16.3851C0.458421 16.18 0.411185 15.9594 0.408063 15.736C0.405539 15.5145 0.449032 15.2949 0.535788 15.0911C0.622544 14.8873 0.750673 14.7037 0.912063 14.552C1.23974 14.2333 1.67898 14.0553 2.13606 14.056H6.35206C6.57546 14.0528 6.79728 14.0938 7.00478 14.1766C7.21228 14.2595 7.40137 14.3824 7.5612 14.5386C7.72103 14.6947 7.84843 14.8808 7.9361 15.0863C8.02377 15.2918 8.06998 15.5126 8.07206 15.736V15.736Z" stroke="white" stroke-width="0.98" stroke-miterlimit="10"/>
<path d="M8.07196 24.52C8.07121 24.741 8.02622 24.9596 7.93967 25.163C7.85311 25.3663 7.72672 25.5503 7.56796 25.704C7.24193 26.0193 6.80548 26.1944 6.35196 26.192H2.13596C1.68538 26.1984 1.2506 26.0261 0.926758 25.7128C0.602914 25.3994 0.416376 24.9705 0.407959 24.52C0.408095 24.2977 0.452764 24.0777 0.539327 23.873C0.625891 23.6683 0.752595 23.483 0.911959 23.328C1.24044 23.0115 1.67984 22.8363 2.13596 22.84H6.35196C6.57535 22.8368 6.79717 22.8778 7.00467 22.9606C7.21217 23.0434 7.40127 23.1664 7.5611 23.3226C7.72092 23.4787 7.84833 23.6648 7.936 23.8703C8.02367 24.0758 8.06987 24.2966 8.07196 24.52V24.52Z" stroke="white" stroke-width="0.98" stroke-miterlimit="10"/>
<path d="M8.07196 32.976C8.07182 33.1983 8.02715 33.4183 7.94059 33.623C7.85403 33.8277 7.72732 34.0131 7.56796 34.168C7.23964 34.4797 6.80468 34.6543 6.35196 34.656H2.13596C1.91218 34.6592 1.68997 34.6182 1.48201 34.5355C1.27406 34.4528 1.08443 34.3299 0.923971 34.1739C0.763507 34.0179 0.635346 33.8318 0.546808 33.6263C0.45827 33.4208 0.411089 33.1998 0.407959 32.976C0.408712 32.755 0.453694 32.5364 0.540252 32.333C0.626811 32.1297 0.753196 31.9457 0.911959 31.792C1.24044 31.4755 1.67984 31.3003 2.13596 31.304H6.35196C6.57469 31.3008 6.79586 31.3416 7.00284 31.4239C7.20983 31.5062 7.39857 31.6285 7.55829 31.7837C7.71801 31.939 7.84558 32.1242 7.93372 32.3288C8.02186 32.5333 8.06883 32.7533 8.07196 32.976V32.976Z" stroke="white" stroke-width="0.98" stroke-miterlimit="10"/>
<path d="M19.688 20.184C21.6674 20.184 23.272 18.6224 23.272 16.696C23.272 14.7696 21.6674 13.208 19.688 13.208C17.7086 13.208 16.104 14.7696 16.104 16.696C16.104 18.6224 17.7086 20.184 19.688 20.184Z" stroke="white" stroke-width="0.98" stroke-miterlimit="10"/>
<path d="M16.5679 28.192H12.3519C12.2699 27.1787 12.3986 26.1595 12.7301 25.1984C13.0615 24.2374 13.5885 23.3555 14.2777 22.6082C14.9669 21.8609 15.8034 21.2645 16.7346 20.8566C17.6657 20.4487 18.6713 20.2381 19.6879 20.2381C20.7045 20.2381 21.71 20.4487 22.6412 20.8566C23.5723 21.2645 24.4089 21.8609 25.0981 22.6082C25.7873 23.3555 26.3142 24.2374 26.6457 25.1984C26.9771 26.1595 27.1059 27.1787 27.0239 28.192H23.2399" stroke="white" stroke-width="0.98" stroke-miterlimit="10" stroke-linecap="round"/>
<path d="M30.4719 0.455998H37.8079C38.0916 0.451764 38.3733 0.503452 38.637 0.608108C38.9007 0.712765 39.1412 0.86834 39.3447 1.06595C39.5483 1.26356 39.7109 1.49933 39.8233 1.7598C39.9357 2.02027 39.9957 2.30033 39.9999 2.584V5.968C39.9894 6.53949 39.7528 7.08351 39.3419 7.48088C38.9311 7.87825 38.3794 8.09656 37.8079 8.088H35.7839" stroke="white" stroke-width="0.98" stroke-miterlimit="10"/>
<path d="M35.776 10.968H37.792C38.0799 10.9605 38.3665 11.0109 38.6346 11.1162C38.9027 11.2215 39.147 11.3795 39.3529 11.5809C39.5588 11.7824 39.7222 12.0231 39.8333 12.2888C39.9445 12.5546 40.0011 12.8399 40 13.128V16.52C39.9968 16.8033 39.9378 17.0832 39.8263 17.3436C39.7147 17.604 39.5528 17.8399 39.3499 18.0376C39.147 18.2353 38.907 18.391 38.6438 18.4957C38.3806 18.6005 38.0992 18.6522 37.816 18.648H35.72" stroke="white" stroke-width="0.98" stroke-miterlimit="10"/>
<path d="M35.752 21.496H37.792C38.0772 21.4886 38.3611 21.5379 38.6271 21.6412C38.8932 21.7445 39.136 21.8997 39.3414 22.0978C39.5469 22.2958 39.711 22.5327 39.824 22.7947C39.9371 23.0568 39.9969 23.3386 40 23.624V27.016C39.9968 27.2993 39.9378 27.5792 39.8262 27.8396C39.7147 28.1 39.5528 28.3359 39.3499 28.5336C39.147 28.7313 38.907 28.887 38.6438 28.9917C38.3806 29.0965 38.0992 29.1482 37.816 29.144H35.888" stroke="white" stroke-width="0.98" stroke-miterlimit="10" stroke-linecap="round"/>
<path d="M35.584 32H37.792C38.077 31.9936 38.3605 32.0437 38.626 32.1474C38.8915 32.2511 39.1339 32.4064 39.3392 32.6042C39.5444 32.802 39.7085 33.0385 39.8219 33.3C39.9353 33.5616 39.9959 33.843 40 34.128V37.512C39.9969 37.7957 39.9379 38.0759 39.8265 38.3368C39.715 38.5977 39.5533 38.834 39.3504 39.0324C39.1476 39.2307 38.9077 39.3872 38.6445 39.4928C38.3812 39.5984 38.0997 39.6512 37.816 39.648H31.176" stroke="white" stroke-width="0.98" stroke-miterlimit="10"/>
</g>
<defs>
<clipPath id="clip0">
<rect width="40" height="40" fill="white"/>
</clipPath>
</defs>
</svg>
