<svg width="42" height="42" viewBox="0 0 42 42" fill="none" xmlns="http://www.w3.org/2000/svg">
<path d="M21 22.4693L10.9715 29.6657L1 22.4693L10.9715 15.3329L21 22.4693Z" stroke="white" stroke-miterlimit="10" stroke-linecap="round" stroke-linejoin="round"/>
<path d="M30.9714 15.3329L20.9999 22.4693L10.9714 15.3329L20.9999 8.13644L30.9714 15.3329Z" stroke="white" stroke-miterlimit="10" stroke-linecap="round" stroke-linejoin="round"/>
<path d="M32.7378 28.4063V33.8036L21 41L9.20508 33.8036V28.4063" stroke="white" stroke-miterlimit="10" stroke-linecap="round" stroke-linejoin="round"/>
<path d="M21 8.13644L10.9715 15.3328L1 8.13644L10.9715 1L21 8.13644Z" stroke="white" stroke-miterlimit="10" stroke-linecap="round" stroke-linejoin="round"/>
<path d="M41 22.4693L30.9715 29.6657L21 22.4693L30.9715 15.3329L41 22.4693Z" stroke="white" stroke-miterlimit="10" stroke-linecap="round" stroke-linejoin="round"/>
<path d="M41 8.13644L30.9715 15.3328L21 8.13644L30.9715 1L41 8.13644Z" stroke="white" stroke-miterlimit="10" stroke-linecap="round" stroke-linejoin="round"/>
<path d="M21 41V22.4692" stroke="white" stroke-miterlimit="10" stroke-linecap="round" stroke-linejoin="round"/>
<path d="M20.9999 8.13644L10.9714 15.3328" stroke="white" stroke-miterlimit="10" stroke-linecap="round" stroke-linejoin="round"/>
<path d="M23.507 9.93552L13.4785 17.072" stroke="white" stroke-miterlimit="10" stroke-linecap="round" stroke-linejoin="round"/>
<path d="M26.0141 11.7346L15.9856 18.8711" stroke="white" stroke-miterlimit="10" stroke-linecap="round" stroke-linejoin="round"/>
<path d="M28.5214 13.5337L18.4929 20.6702" stroke="white" stroke-miterlimit="10" stroke-linecap="round" stroke-linejoin="round"/>
<path d="M30.9715 15.3329L21 22.4693" stroke="white" stroke-miterlimit="10" stroke-linecap="round" stroke-linejoin="round"/>
</svg>
