<svg width="40" height="40" viewBox="0 0 40 40" fill="none" xmlns="http://www.w3.org/2000/svg">
<circle cx="20" cy="20" r="20" fill="#354258"/>
<path fill-rule="evenodd" clip-rule="evenodd" d="M20 8C22.0735 8 23.937 8.80549 25.3018 10.1144C26.6667 11.4233 27.5066 13.2105 27.5066 15.1991C27.5066 17.1876 26.6667 19 25.3018 20.2838C25.0656 20.5103 24.7769 20.7368 24.5144 20.9382C25.7743 21.2654 26.9291 21.9199 27.8215 22.7757C29.1601 24.0595 30 25.8467 30 27.7849V29.1442C30 29.6224 29.6063 30 29.1076 30H29.0814H10.8924C10.3937 30 10 29.6224 10 29.1442V29.119V27.8101C10 25.8467 10.8399 24.0847 12.1785 22.8009C13.0709 21.9451 14.2257 21.2906 15.4856 20.9634C15.1969 20.762 14.9344 20.5355 14.6982 20.3089C13.3333 19 12.4934 17.2128 12.4934 15.2243C12.4934 13.2357 13.3333 11.4485 14.6982 10.1396C16.0367 8.80549 17.9265 8 20 8ZM24.0682 11.2975C23.0184 10.2906 21.5748 9.6865 20 9.6865C18.4252 9.6865 16.9816 10.2906 15.9318 11.2975C14.8819 12.3043 14.252 13.6636 14.252 15.1991C14.252 16.7094 14.9081 18.0938 15.9318 19.1007C16.9554 20.0824 18.399 20.7117 20 20.7117C21.5748 20.7117 23.0184 20.0824 24.0682 19.1007C25.1181 18.0938 25.748 16.7346 25.748 15.1991C25.748 13.6636 25.0919 12.3043 24.0682 11.2975ZM22.5984 22.3982H20H17.4016C15.853 22.3982 14.4357 23.0023 13.4121 23.984C12.3885 24.9657 11.7585 26.3249 11.7585 27.8101V28.3135H28.2152V27.8101C28.2152 26.3249 27.5853 24.9657 26.5617 23.984C25.5643 23.0023 24.147 22.3982 22.5984 22.3982Z" fill="white"/>
</svg>
