<svg width="30" height="30" fill="none" xmlns="http://www.w3.org/2000/svg"><g clip-path="url(#clip0)"><path d="M4.5 2.5h21V27a2.5 2.5 0 01-2.5 2.5H7A2.5 2.5 0 014.5 27V2.5z" stroke="#B40000"/><path d="M.12 2.52h30" stroke="#B40000" stroke-miterlimit="10"/><path d="M19.482.666a.6.6 0 01.6.63v.6h-9.954v-.6a.6.6 0 01.63-.6h8.724v-.03zm0-.57h-8.724a1.23 1.23 0 00-1.2 1.23v1.2h11.148v-1.2a1.2 1.2 0 00-1.2-1.23h-.024z" fill="#B40000"/><path d="M9.96 9.072v14.85M15.12 9.072v14.85M20.28 9.072v14.85" stroke="#B40000" stroke-miterlimit="10"/></g><defs><clipPath id="clip0"><path fill="#fff" d="M0 0h30v30H0z"/></clipPath></defs></svg>