<svg width="18" height="19"  xmlns="http://www.w3.org/2000/svg"><path d="M7.066.813h3.868l.129.558.386 2.02a6.6 6.6 0 011.762 1.074l2.02-.688.558-.172.258.473 1.375 2.406.258.473-.387.387-1.547 1.332c.086.515.129.873.129 1.074 0 .2-.043.559-.129 1.074l1.547 1.332.387.387-.258.473-1.375 2.406-.258.473-.559-.172-2.02-.688a6.611 6.611 0 01-1.76 1.074l-.387 2.02-.13.558H7.067l-.128-.558-.387-2.02a6.612 6.612 0 01-1.762-1.074l-2.02.688-.558.171-.258-.472-1.375-2.406-.258-.473.387-.387 1.547-1.332c-.086-.515-.129-.873-.129-1.074 0-.2.043-.559.129-1.074L.707 7.344.32 6.957l.258-.473 1.375-2.406.258-.473.559.172 2.02.688A6.612 6.612 0 016.55 3.39l.388-2.02.128-.558zm1.118 1.375L7.84 3.992l-.086.387-.387.129A5.752 5.752 0 005.305 5.71l-.344.258-.344-.086-1.762-.602-.816 1.375L3.414 7.86l.344.258-.13.43A5.343 5.343 0 003.5 9.75c0 .43.043.83.129 1.203l.129.43-.344.258-1.375 1.203.816 1.375 1.762-.602.344-.086.344.258a5.755 5.755 0 002.062 1.203l.387.13.086.386.344 1.805h1.632l.344-1.805.086-.387.387-.129a5.753 5.753 0 002.062-1.203l.344-.258.344.086 1.762.602.816-1.375-1.375-1.203-.3-.258.085-.43c.086-.372.129-.773.129-1.203 0-.43-.043-.83-.129-1.203l-.129-.43.344-.258 1.375-1.203-.816-1.375-1.762.602-.344.086-.344-.258a5.752 5.752 0 00-2.062-1.203l-.387-.13-.086-.386-.344-1.804H8.184zM6.55 7.343C7.238 6.656 8.055 6.312 9 6.312c.945 0 1.747.344 2.406 1.032.688.659 1.031 1.46 1.031 2.406 0 .945-.343 1.762-1.03 2.45-.66.658-1.462.988-2.407.988-.945 0-1.762-.33-2.45-.989a3.42 3.42 0 01-.987-2.449c0-.945.329-1.747.988-2.406zm3.91.945a1.989 1.989 0 00-1.46-.6c-.573 0-1.06.2-1.46.601a1.989 1.989 0 00-.603 1.461c0 .573.201 1.06.602 1.46.401.402.888.602 1.461.602.573 0 1.06-.2 1.46-.601.402-.401.602-.888.602-1.461 0-.573-.2-1.06-.601-1.46z" /></svg>