<svg width="40" height="40" viewBox="0 0 40 40" fill="none" xmlns="http://www.w3.org/2000/svg">
<g clip-path="url(#clip0)">
<path d="M20.136 0.864006C22.4213 0.836222 24.6244 1.71587 26.262 3.31004C27.8997 4.90422 28.8383 7.08279 28.872 9.36801C28.8404 11.6546 27.9027 13.8352 26.2648 15.4311C24.6269 17.027 22.4227 17.9078 20.136 17.88C17.8486 17.9078 15.6435 17.0273 14.0044 15.4316C12.3652 13.8359 11.4258 11.6553 11.392 9.36801C11.4258 7.08139 12.3655 4.90159 14.0049 3.30719C15.6443 1.71279 17.8494 0.834086 20.136 0.864006ZM20.136 0.0640062C18.8984 0.0481468 17.6698 0.276232 16.5204 0.735238C15.3709 1.19424 14.3232 1.87518 13.4369 2.73915C12.5506 3.60313 11.8432 4.63322 11.3551 5.77061C10.867 6.908 10.6077 8.1304 10.592 9.36801C10.6237 11.8682 11.6468 14.2535 13.4364 15.9997C15.2261 17.7458 17.6358 18.7099 20.136 18.68C21.3736 18.6948 22.602 18.4657 23.7511 18.0057C24.9001 17.5457 25.9473 16.8639 26.8328 15.9992C27.7183 15.1345 28.4248 14.1038 28.912 12.966C29.3992 11.8282 29.6574 10.6056 29.672 9.36801C29.6404 6.86994 28.6182 4.48666 26.83 2.74201C25.0419 0.997357 22.6341 0.0341152 20.136 0.0640062Z" fill="white"/>
<path d="M11.8321 39.664H0.616108C-0.455892 28.248 8.89611 18.4 20.1361 18.4C31.3761 18.4 40.7201 28.248 39.6481 39.664H29.6001" stroke="white" stroke-miterlimit="10" stroke-linecap="round"/>
</g>
<defs>
<clipPath id="clip0">
<rect width="40" height="40" fill="white"/>
</clipPath>
</defs>
</svg>
