<svg width="40" height="40" viewBox="0 0 40 40" fill="none" xmlns="http://www.w3.org/2000/svg">
<path d="M26.352 25.904C26.2943 25.933 26.2383 25.965 26.184 26H26.12L25.904 26.144H25.856L25.688 26.28L25.6 26.4L25.448 26.536L25.392 26.6C25.3213 26.6654 25.2546 26.7348 25.192 26.808L25.024 27.016L24.968 27.088L24.84 27.272L24.784 27.352L24.616 27.616C24.5606 27.7067 24.5099 27.8001 24.464 27.896L24.416 27.992L24.304 28.208L24.256 28.312C24.2139 28.4033 24.1765 28.4968 24.144 28.592L24.016 28.928C24.0195 28.9626 24.0195 28.9974 24.016 29.032C24.016 29.112 23.96 29.2 23.936 29.288C23.912 29.376 23.936 29.36 23.896 29.4C23.856 29.44 23.84 29.592 23.816 29.696C23.792 29.8 23.816 29.744 23.816 29.768C23.816 29.792 23.752 30.016 23.728 30.144C23.7242 30.1759 23.7242 30.2081 23.728 30.24C23.728 30.336 23.688 30.44 23.672 30.536C23.656 30.632 23.672 30.536 23.672 30.6H13.472V30.496C13.472 30.456 13.472 30.424 13.472 30.384L13.424 30.176C13.4279 30.1441 13.4279 30.1119 13.424 30.08C13.424 29.984 13.384 29.888 13.36 29.792C13.36 29.712 13.32 29.624 13.296 29.544V29.448C13.2726 29.3882 13.2539 29.3267 13.24 29.264C13.24 29.264 13.24 29.2 13.2 29.16C13.16 29.12 13.16 29.048 13.144 28.984C13.128 28.92 13.144 28.92 13.144 28.888L12.944 28.8C12.9397 28.7789 12.9397 28.7571 12.944 28.736C12.944 28.648 12.872 28.56 12.84 28.48V28.432C12.84 28.368 12.784 28.304 12.752 28.232C12.7477 28.2055 12.7477 28.1785 12.752 28.152L12.672 28L12.624 27.912L12.544 27.768L12.496 27.688C12.4643 27.6303 12.4296 27.5742 12.392 27.52C12.3943 27.5041 12.3943 27.4879 12.392 27.472L12.256 27.272V27.224L12 27.056L11.952 26.992L11.848 26.872L11.792 26.808C11.7616 26.7669 11.7267 26.7294 11.688 26.696L11.64 26.64L11.504 26.512L11.336 26.368L11.208 26.272H11.152L11.032 26.192H10.968L10.848 26.128H10.792L10.632 26.048C10.5742 26.0158 10.5123 25.9916 10.448 25.976H10.4L10.264 25.936H10.192H10.072H10H9.86402H9.35202H9.21602H9.15202H9.02402H8.96002L8.82402 25.976H8.76802C8.70416 25.993 8.64243 26.0171 8.58402 26.048L8.42402 26.128H8.36802L8.24802 26.192H8.18402L8.07202 26.272H8.00802L7.88802 26.368H7.84002L7.68002 26.512C7.63345 26.5506 7.59059 26.5934 7.55202 26.64L7.49602 26.696L7.20002 26.808V26.872L7.10402 26.992L7.04802 27.056L6.91202 27.2V27.248L6.77602 27.448V27.496C6.74427 27.5538 6.70956 27.6098 6.67202 27.664V27.736L6.58402 27.888V27.976C6.55425 28.025 6.52753 28.0757 6.50402 28.128V28.208L6.40802 28.408V28.456C6.40802 28.536 6.33602 28.624 6.29602 28.712V28.776L6.22402 28.968C6.22058 28.9999 6.22058 29.0321 6.22402 29.064C6.22402 29.128 6.17602 29.184 6.16002 29.24C6.14402 29.296 6.16002 29.312 6.16002 29.344C6.16002 29.376 6.16002 29.472 6.10402 29.528C6.10746 29.5599 6.10746 29.5921 6.10402 29.624C6.10402 29.704 6.06402 29.792 6.04002 29.872L5.96802 30.16C5.97187 30.1919 5.97187 30.2241 5.96802 30.256C5.96423 30.3253 5.96423 30.3947 5.96802 30.464V30.576C5.96802 30.576 5.96802 30.64 5.96802 30.68H3.56802M39.352 21.688L38.016 16.656L36 9.00001C35.824 8.32001 35.424 7.88001 34.976 7.88001H28.576V4.68001C28.576 2.23201 27.4 0.240005 25.952 0.240005H3.14402C1.69602 0.264005 0.52002 2.25601 0.52002 4.70401V30.08C0.52002 32.536 1.69602 34.528 3.14402 34.528H5.54402C6.03202 37.448 7.62402 39.6 9.54402 39.6C11.464 39.6 13.016 37.448 13.504 34.528H23.512C24.008 37.448 25.592 39.6 27.512 39.6C29.432 39.6 30.984 37.448 31.472 34.528H36.8C38.248 34.528 39.424 32.536 39.424 30.08V22.472C39.437 22.2086 39.4127 21.9447 39.352 21.688ZM28.6 11.688H34.2L35.216 15.496H28.6V11.688ZM9.50402 35.792C8.47202 35.792 7.63202 34.368 7.63202 32.592C7.63202 30.816 8.47202 29.392 9.50402 29.392C10.536 29.392 11.376 30.816 11.376 32.592C11.376 34.368 10.536 35.792 9.50402 35.792ZM27.896 35.752C26.864 35.752 26.024 34.328 26.024 32.552C26.024 30.776 26.824 29.352 27.896 29.352C28.968 29.352 29.768 30.776 29.768 32.552C29.768 34.328 28.504 35.792 27.472 35.792L27.896 35.752ZM37.208 30.08C37.208 30.432 37.04 30.72 36.832 30.72H31.44V30.656C31.44 30.552 31.44 30.456 31.384 30.36C31.328 30.264 31.384 30.288 31.384 30.256C31.384 30.224 31.328 30 31.296 29.88V29.8C31.296 29.704 31.248 29.608 31.216 29.504C31.184 29.4 31.216 29.432 31.216 29.392C31.216 29.352 31.16 29.216 31.136 29.128L31.096 29.032L30.976 28.688V28.64C30.976 28.544 30.904 28.456 30.856 28.36V28.264L30.744 28.04L30.696 27.944L30.4 27.664L30.232 27.392L30.176 27.312L30.048 27.128L29.984 27.048C29.9351 26.9779 29.8817 26.9111 29.824 26.848L29.6 26.584L29.536 26.52L29.376 26.4L29.304 26.344L29.136 26.208H29.088C29.0164 26.1554 28.9416 26.1073 28.864 26.064H28.808L28.64 25.976V19.2H36.296L37.248 22.824L37.208 30.08Z" stroke="white" stroke-width="0.98" stroke-linecap="round" stroke-linejoin="round"/>
</svg>
