<svg width="40" height="40" viewBox="0 0 40 40" fill="none" xmlns="http://www.w3.org/2000/svg">
<g clip-path="url(#clip0)">
<path d="M21.48 4.888L34.504 5.96L35.304 18.512L29.224 24.8L15.88 38.616C15.6909 38.8081 15.4655 38.9606 15.2169 39.0647C14.9683 39.1688 14.7015 39.2224 14.432 39.2224C14.1625 39.2224 13.8956 39.1688 13.6471 39.0647C13.3985 38.9606 13.1731 38.8081 12.984 38.616L1.82398 27.328C1.43704 26.9358 1.2201 26.407 1.2201 25.856C1.2201 25.305 1.43704 24.7762 1.82398 24.384L13.168 13.12L21.48 4.888ZM21.168 4.04L1.23998 23.8C0.702047 24.3475 0.400635 25.0844 0.400635 25.852C0.400635 26.6196 0.702047 27.3565 1.23998 27.904L12.4 39.2C12.6645 39.4709 12.9806 39.6862 13.3295 39.8332C13.6785 39.9802 14.0533 40.0559 14.432 40.0559C14.8106 40.0559 15.1855 39.9802 15.5344 39.8332C15.8834 39.6862 16.1994 39.4709 16.464 39.2L36.168 18.816C35.864 14.2827 35.5653 9.74934 35.272 5.216L21.168 4.04Z" fill="white"/>
<path d="M39.336 0.448L28.8 11.056C28.456 11.408 28.304 11.856 28.472 12L28.528 12.056C28.688 12.224 29.112 12.056 29.464 11.72L40 1.12C40.352 0.768 40.504 0.32 40.336 0.176L40.272 0.112C40.104 -0.0560005 39.688 0.0959995 39.336 0.448Z" fill="white"/>
<path d="M26.848 16.592C28.3635 16.592 29.592 15.3491 29.592 13.816C29.592 12.2829 28.3635 11.04 26.848 11.04C25.3325 11.04 24.104 12.2829 24.104 13.816C24.104 15.3491 25.3325 16.592 26.848 16.592Z" stroke="white" stroke-width="1.02" stroke-miterlimit="10"/>
</g>
<defs>
<clipPath id="clip0">
<rect width="40" height="40" fill="white"/>
</clipPath>
</defs>
</svg>
