<svg width="12" height="16" viewBox="0 0 12 16" fill="none" xmlns="http://www.w3.org/2000/svg">
<path d="M10.2853 6.51861V4.44448C10.2853 2.01402 8.3426 0 5.99985 0C3.6571 0 1.71411 2.01402 1.71411 4.44448V6.51861C0.742773 6.51861 0 7.2889 0 8.29622V14.2221C0 15.2294 0.742773 16 1.71411 16H10.2853C11.2569 16 11.9997 15.2294 11.9997 14.2221V8.29622C11.9997 7.34808 11.2569 6.51861 10.2853 6.51861ZM2.28569 4.44448C2.28569 3.42293 2.677 2.44323 3.37354 1.72089C4.07008 0.998549 5.01479 0.592742 5.99985 0.592742C6.98491 0.592742 7.92962 0.998549 8.62616 1.72089C9.3227 2.44323 9.71402 3.42293 9.71402 4.44448V6.51861H9.14244V4.44448C9.14244 2.66656 7.71397 1.18517 5.99985 1.18517C4.28574 1.18517 2.85696 2.66656 2.85696 4.44448V6.51861H2.28569V4.44448ZM8.57117 4.44448V6.51861H3.42823V4.44448C3.43553 3.7422 3.70967 3.07126 4.19112 2.57732C4.67257 2.08339 5.32247 1.80635 5.9997 1.80635C6.67694 1.80635 7.32683 2.08339 7.80828 2.57732C8.28974 3.07126 8.56387 3.7422 8.57117 4.44448ZM11.4284 14.2221C11.4275 14.5362 11.3067 14.8371 11.0925 15.0592C10.8784 15.2812 10.5881 15.4064 10.2853 15.4073H1.71411C1.41128 15.4064 1.1211 15.2812 0.906961 15.0591C0.692824 14.8371 0.572139 14.5361 0.571272 14.2221V8.29622C0.572139 7.98216 0.692824 7.68123 0.906961 7.45916C1.1211 7.2371 1.41128 7.11194 1.71411 7.11104H10.2853C10.5881 7.11194 10.8784 7.23709 11.0925 7.45915C11.3067 7.68121 11.4275 7.98214 11.4284 8.29622V14.2221Z" fill="white"/>
</svg>
