<svg width="42" height="42" fill="none" xmlns="http://www.w3.org/2000/svg"><path d="M29.79 41.42H12.2A11.63 11.63 0 0 1 .58 29.8V12.2A11.64 11.64 0 0 1 12.2.58h17.59A11.64 11.64 0 0 1 41.42 12.2v17.6a11.64 11.64 0 0 1-11.63 11.62ZM12.2 4.08a8.13 8.13 0 0 0-8.12 8.12v17.6a8.13 8.13 0 0 0 8.12 8.12h17.59a8.13 8.13 0 0 0 8.13-8.12V12.2a8.14 8.14 0 0 0-8.13-8.12H12.2Z" fill="#2A4CC5"/><path d="M21 31.46A10.46 10.46 0 1 1 31.45 21 10.47 10.47 0 0 1 21 31.46Zm0-17.42a7 7 0 1 0-.1 13.998A7 7 0 0 0 21 14.04ZM34.41 9.95a2.51 2.51 0 1 1-5.021-.02 2.51 2.51 0 0 1 5.021.02Z" fill="#2A4CC5"/></svg>