<svg width="37" height="37" fill="none" xmlns="http://www.w3.org/2000/svg"><path fill-rule="evenodd" clip-rule="evenodd" d="M18.47 32.32a14.86 14.86 0 0 1-8.19-2.46l-5.71 1.82 1.84-5.5a14.63 14.63 0 0 1-2.84-8.67c0-.475.03-.95.09-1.42a14.9 14.9 0 0 1 29.67.27v1.15a14.86 14.86 0 0 1-14.89 14.8l.03.01Zm8.12-11.24c-.45-.21-2.56-1.27-3-1.42-.44-.15-.69-.21-1 .24-.31.45-1.12 1.39-1.36 1.67s-.52.33-.94.12a11.433 11.433 0 0 1-3.5-2.15 12.87 12.87 0 0 1-2.42-3c-.24-.45 0-.66.18-.9.24-.236.46-.49.66-.76a.86.86 0 0 0 .16-.18c.104-.166.194-.34.27-.52a.73.73 0 0 0 0-.75c-.09-.21-1-2.36-1.33-3.2-.33-.84-.73-.73-1-.73h-.84a1.46 1.46 0 0 0-1.15.55 4.621 4.621 0 0 0-1.54 3.59c.004.493.085.982.24 1.45a9.43 9.43 0 0 0 1.54 3c.21.3 3 4.78 7.4 6.5 4.4 1.72 4.44 1.15 5.23 1.09a4.353 4.353 0 0 0 2.96-2.06 3.44 3.44 0 0 0 .24-2 2.34 2.34 0 0 0-.82-.49l.02-.05Zm9.58-4a17.71 17.71 0 0 0-35.38-.33 6.44 6.44 0 0 0 0 .76 17.6 17.6 0 0 0 2.54 9.09L.15 36.04l9.82-3.11a17.77 17.77 0 0 0 26.28-15.41v-.43l-.08-.01Z" fill="#2A4CC5"/></svg>